<?xml version="1.0" encoding="utf-8"?>
<!-- Generator: Adobe Illustrator 15.0.2, SVG Export Plug-In . SVG Version: 6.00 Build 0)  -->
<!DOCTYPE svg PUBLIC "-//W3C//DTD SVG 1.1//EN" "http://www.w3.org/Graphics/SVG/1.1/DTD/svg11.dtd">
<svg version="1.1" id="Слой_1" xmlns="http://www.w3.org/2000/svg" xmlns:xlink="http://www.w3.org/1999/xlink" x="0px" y="0px"
	 width="96px" height="96px" viewBox="0 0 96 96" enable-background="new 0 0 96 96" xml:space="preserve">
<rect fill="none" width="96" height="96"/>
<g>
	
		<linearGradient id="SVGID_1_" gradientUnits="userSpaceOnUse" x1="3100.2305" y1="4515.8799" x2="3100.2305" y2="4447.5264" gradientTransform="matrix(1 0 0 1 -3052.1953 -4435.8047)">
		<stop  offset="0" style="stop-color:#960021"/>
		<stop  offset="1" style="stop-color:#E60014"/>
	</linearGradient>
	<path fill="url(#SVGID_1_)" d="M88,47.997c0,29.633-10.352,39.998-39.964,39.998S8.069,77.63,8.069,47.997
		C8.07,18.363,18.426,8,48.037,8S88,18.363,88,47.997z"/>
	
		<linearGradient id="SVGID_2_" gradientUnits="userSpaceOnUse" x1="3100.1641" y1="4523.5557" x2="3100.1641" y2="4444.3193" gradientTransform="matrix(1 0 0 1 -3052.1953 -4435.8047)">
		<stop  offset="0" style="stop-color:#000000;stop-opacity:0.4"/>
		<stop  offset="1" style="stop-color:#FFFFFF"/>
	</linearGradient>
	<path opacity="0.4" fill="url(#SVGID_2_)" enable-background="new    " d="M47.965,8.008C18.355,8.008,8,18.371,8,48.003
		C8,77.639,18.354,88,47.965,88c29.611,0,39.971-10.363,39.971-39.997C87.936,18.371,77.576,8.008,47.965,8.008z M47.965,87.005
		c-29.133,0-38.966-9.845-38.966-39.006c0-29.157,9.833-38.996,38.966-38.996c29.129,0,38.967,9.84,38.967,38.997
		C86.932,77.16,77.092,87.005,47.965,87.005z"/>
</g>
<path opacity="0.03" enable-background="new    " d="M84.289,68.5h-7.165v-41h7.165c-1.952-5.755-5.069-9.97-9.621-12.907H47.125V16
	h-27.8c-3.514,2.828-6.024,6.604-7.685,11.5h35.483v41H11.64c1.66,4.896,4.168,8.672,7.679,11.5h27.806v6l8.109-6h13.781
	l3.543,2.622C78.271,79.675,82.05,75.104,84.289,68.5z"/>
<path opacity="0.05" enable-background="new    " d="M48.625,69.5H12c1.355,3.615,3.202,6.596,5.624,9h31v5.25l7.142-5.25h12.717
	l4.961,3.646c0.764-0.434,1.49-0.896,2.182-1.393V78.5h2.68c2.422-2.404,4.27-5.385,5.625-9h-8.305v-43h8.305
	c-1.357-3.616-3.207-6.596-5.631-9h-2.674v-1.407h-27V17.5H17.629c-2.424,2.404-4.272,5.384-5.628,9h36.624V69.5z"/>
<path opacity="0.08" enable-background="new    " d="M50.125,70.5H12.396c1.026,2.477,2.303,4.637,3.861,6.5h33.868v4.75L56.458,77
	h11.334l6.329,4.747c0.001-0.001,0.003-0.002,0.004-0.003V77h5.547c1.559-1.863,2.835-4.023,3.861-6.5h-9.408v-45h9.407
	c-1.027-2.476-2.306-4.636-3.863-6.5h-5.544v-1.407h-24V19H16.26c-1.558,1.864-2.836,4.024-3.863,6.5h37.728V70.5z"/>
<path opacity="0.15" enable-background="new    " d="M51.625,71.523H12.833c0.662,1.44,1.425,2.76,2.28,3.977h36.512v4l5.344-4
	h10.313l5.344,4v-4h8.19c0.854-1.217,1.617-2.535,2.281-3.977H72.625V24.477h10.471c-0.662-1.441-1.427-2.76-2.281-3.977h-8.188
	v-1.407h-21V20.5h-36.51c-0.855,1.217-1.619,2.536-2.281,3.977h38.791L51.625,71.523L51.625,71.523z"/>
<linearGradient id="SVGID_3_" gradientUnits="userSpaceOnUse" x1="295.5664" y1="-347.7915" x2="295.5664" y2="-295.4997" gradientTransform="matrix(1 0 0 -1 -247.5996 -273.9004)">
	<stop  offset="0" style="stop-color:#999999"/>
	<stop  offset="1" style="stop-color:#E5E5E5"/>
</linearGradient>
<path fill="url(#SVGID_3_)" d="M86.932,48c0-8.793-0.902-15.819-2.951-21.358v1.797h-4.646V23.78h3.417
	c-0.305-0.615-0.627-1.208-0.968-1.78H14.145c-0.341,0.572-0.664,1.165-0.967,1.78h2.44v4.658h-4.276
	C9.724,33.68,8.999,40.13,8.999,47.999c0,7.864,0.724,14.313,2.34,19.554h4.066v4.658h-2.233c0.305,0.618,0.629,1.215,0.971,1.789
	h67.642c0.343-0.574,0.667-1.171,0.972-1.789h-3.172v-4.658h4.396v1.809C86.027,63.82,86.932,56.794,86.932,48z M23.314,72.188
	h-4.648v-4.658h4.648V72.188z M23.314,28.438h-4.648V23.78h4.648V28.438z M30.938,72.188H26.29v-4.658h4.648V72.188z M30.938,28.438
	H26.29V23.78h4.648V28.438z M38.44,72.188h-4.65v-4.658h4.65V72.188z M38.44,28.438h-4.65V23.78h4.65V28.438z M45.926,72.184h-4.643
	v-4.648h4.649L45.926,72.184z M45.926,28.433h-4.643v-4.649h4.649L45.926,28.433z M53.557,72.188h-4.644v-4.658h4.644V72.188z
	 M53.557,28.438h-4.644V23.78h4.644V28.438z M61.18,72.188h-4.643v-4.658h4.643V72.188z M61.18,28.438h-4.643V23.78h4.643V28.438z
	 M68.68,72.182h-4.638v-4.646h4.638V72.182z M68.68,28.432h-4.638v-4.646h4.638V28.432z M76.303,72.188h-4.654v-4.655h4.654V72.188z
	 M76.303,28.438h-4.654v-4.656h4.654V28.438z"/>
<g>
	<rect x="26.289" y="28.438" fill="#FFFFFF" width="4.648" height="0.75"/>
	<rect x="26.289" y="72.204" fill="#E5E5E5" width="4.648" height="0.75"/>
	<rect x="33.791" y="28.438" fill="#FFFFFF" width="4.65" height="0.75"/>
	<rect x="18.666" y="72.206" fill="#E5E5E5" width="4.648" height="0.75"/>
	<rect x="33.791" y="72.204" fill="#E5E5E5" width="4.65" height="0.75"/>
	<rect x="41.284" y="28.433" fill="#FFFFFF" width="4.643" height="0.75"/>
	<path fill="#FFFFFF" d="M85.076,30.22c-0.324-1.25-0.682-2.453-1.098-3.578v0.75c0.332,0.898,0.623,1.851,0.896,2.828H85.076z"/>
	<rect x="79.335" y="28.438" fill="#FFFFFF" width="4.646" height="0.75"/>
	<path fill="#FFFFFF" d="M14.145,22.75h67.639c0.196,0.331,0.375,0.685,0.56,1.03h0.408c-0.305-0.615-0.627-1.208-0.968-1.78H14.145
		c-0.341,0.572-0.664,1.165-0.967,1.78h0.408C13.77,23.435,13.948,23.081,14.145,22.75z"/>
	<rect x="18.666" y="28.438" fill="#FFFFFF" width="4.648" height="0.75"/>
	<path fill="#E5E5E5" d="M15.405,72.211h-2.233c0.128,0.26,0.272,0.498,0.407,0.75h1.826V72.211z"/>
	<rect x="64.042" y="72.201" fill="#E5E5E5" width="4.638" height="0.75"/>
	<rect x="64.042" y="28.432" fill="#FFFFFF" width="4.638" height="0.75"/>
	<rect x="71.646" y="72.204" fill="#E5E5E5" width="4.656" height="0.75"/>
	<rect x="71.646" y="28.438" fill="#FFFFFF" width="4.656" height="0.75"/>
	<rect x="41.284" y="72.203" fill="#E5E5E5" width="4.643" height="0.75"/>
	<path fill="#FFFFFF" d="M11.342,28.438c-0.178,0.577-0.341,1.175-0.498,1.781h0.209c0.096-0.344,0.186-0.697,0.289-1.031h4.276
		v-0.75H11.342z"/>
	<path fill="#E5E5E5" d="M79.585,72.961h2.765c0.135-0.252,0.279-0.49,0.407-0.75h-3.172V72.961z"/>
	<rect x="48.913" y="28.438" fill="#FFFFFF" width="4.644" height="0.75"/>
	<rect x="48.913" y="72.206" fill="#E5E5E5" width="4.644" height="0.75"/>
	<rect x="56.537" y="28.438" fill="#FFFFFF" width="4.643" height="0.75"/>
	<rect x="56.537" y="72.206" fill="#E5E5E5" width="4.643" height="0.75"/>
</g>
<g>
	
		<linearGradient id="SVGID_4_" gradientUnits="userSpaceOnUse" x1="330.8076" y1="-339.7559" x2="330.8076" y2="-304.1206" gradientTransform="matrix(1 0 0 -1 -247.5996 -273.9004)">
		<stop  offset="0" style="stop-color:#3C3F46"/>
		<stop  offset="0.6121" style="stop-color:#555B64"/>
		<stop  offset="1" style="stop-color:#626973"/>
	</linearGradient>
	<path fill="url(#SVGID_4_)" d="M79.482,65.855h5.59c1.279-4.92,1.859-10.82,1.859-17.855c0-7-0.574-12.876-1.841-17.78h-5.608
		V65.855L79.482,65.855z"/>
	
		<linearGradient id="SVGID_5_" gradientUnits="userSpaceOnUse" x1="295.0166" y1="-339.7559" x2="295.0166" y2="-304.1206" gradientTransform="matrix(1 0 0 -1 -247.5996 -273.9004)">
		<stop  offset="0" style="stop-color:#3C3F46"/>
		<stop  offset="0.6121" style="stop-color:#555B64"/>
		<stop  offset="1" style="stop-color:#626973"/>
	</linearGradient>
	<rect x="19.227" y="30.22" fill="url(#SVGID_5_)" width="56.378" height="35.635"/>
	
		<linearGradient id="SVGID_6_" gradientUnits="userSpaceOnUse" x1="259.8047" y1="-339.7559" x2="259.8047" y2="-304.1206" gradientTransform="matrix(1 0 0 -1 -247.5996 -273.9004)">
		<stop  offset="0" style="stop-color:#3C3F46"/>
		<stop  offset="0.6121" style="stop-color:#555B64"/>
		<stop  offset="1" style="stop-color:#626973"/>
	</linearGradient>
	<path fill="url(#SVGID_6_)" d="M10.856,65.855h4.553V30.22h-4.572C9.573,35.124,8.999,41,8.999,47.999
		C8.999,55.034,9.579,60.936,10.856,65.855z"/>
</g>
<g>
	<path fill="#E5E5E5" d="M79.482,65.355v0.5h5.59c0.043-0.162,0.078-0.336,0.119-0.5H79.482z"/>
	<rect x="19.227" y="65.355" fill="#E5E5E5" width="56.378" height="0.5"/>
	<path fill="#E5E5E5" d="M10.856,65.855h4.553v-0.5h-4.671C10.779,65.521,10.814,65.693,10.856,65.855z"/>
</g>
<path fill="#3C3F46" d="M19.227,65.855l0.5-0.5V30.72h55.378v34.635l0.5,0.5V30.22H19.227V65.855z M10.718,30.72h4.192v34.635
	l0.5,0.5V30.22h-4.572C10.797,30.378,10.757,30.545,10.718,30.72z M79.482,30.22v35.635l0.5-0.5V30.72h5.229
	c-0.039-0.174-0.079-0.342-0.12-0.5H79.482z"/>
<g>
	<rect x="47.125" y="22" opacity="0.03" enable-background="new    " width="30" height="52"/>
	<polygon opacity="0.05" enable-background="new    " points="61.887,74 62.125,73.825 62.363,74 75.625,74 75.625,22 48.625,22 
		48.625,74 	"/>
	<polygon opacity="0.08" enable-background="new    " points="60.457,74 62.125,72.749 63.793,74 74.125,74 74.125,22 50.125,22 
		50.125,74 	"/>
	<polygon opacity="0.15" enable-background="new    " points="58.973,74 62.125,71.641 65.277,74 72.625,74 72.625,22 51.625,22 
		51.625,74 	"/>
	
		<linearGradient id="SVGID_7_" gradientUnits="userSpaceOnUse" x1="309.7256" y1="-351.1504" x2="309.7256" y2="-294.4932" gradientTransform="matrix(1 0 0 -1 -247.5996 -273.9004)">
		<stop  offset="0" style="stop-color:#00AA00"/>
		<stop  offset="1" style="stop-color:#00DC00"/>
	</linearGradient>
	<polygon fill="url(#SVGID_7_)" points="71.125,77.25 62.125,70.5 53.125,77.25 53.125,20.593 71.125,20.593 	"/>
	
		<linearGradient id="SVGID_8_" gradientUnits="userSpaceOnUse" x1="309.7256" y1="-351.1504" x2="309.7256" y2="-294.4932" gradientTransform="matrix(1 0 0 -1 -247.5996 -273.9004)">
		<stop  offset="0" style="stop-color:#FFFFFF;stop-opacity:0"/>
		<stop  offset="1" style="stop-color:#FFFFFF"/>
	</linearGradient>
	<polygon opacity="0.6" fill="url(#SVGID_8_)" enable-background="new    " points="53.125,20.593 53.125,77.25 53.625,76.875 
		53.625,21.343 70.625,21.343 70.625,76.875 71.125,77.25 71.125,20.593 	"/>
</g>
</svg>
