<?xml version="1.0" encoding="utf-8"?>
<!-- Generator: Adobe Illustrator 15.0.2, SVG Export Plug-In  -->
<!DOCTYPE svg PUBLIC "-//W3C//DTD SVG 1.0//EN" "http://www.w3.org/TR/2001/REC-SVG-20010904/DTD/svg10.dtd" [
	<!ENTITY ns_flows "http://ns.adobe.com/Flows/1.0/">
]>
<svg version="1.0"
	 xmlns="http://www.w3.org/2000/svg" xmlns:xlink="http://www.w3.org/1999/xlink" xmlns:a="http://ns.adobe.com/AdobeSVGViewerExtensions/3.0/"
	 x="0px" y="0px" width="150px" height="150px" viewBox="131.1 36.8 150 150" enable-background="new 131.1 36.8 150 150"
	 xml:space="preserve">
<defs>
</defs>
<path fill="#E8E8E8" d="M61.3,21.3c-2.6-0.1-5.1,0-7.4-0.4c-2.4-0.2-4.7-0.4-6.8-0.7c-2.1-0.3-4.1-0.7-6-1c-1.8-0.4-3.5-0.8-5-1.2
	c-2.4-0.8-4.1-1.6-4.9-2.5c-0.8-0.9-0.9-1.8-0.2-2.7c0.7-0.9,2-1.7,4.1-2.5c2-0.8,4.8-1.5,8.1-2.1c1.2-0.2,2.5-0.4,3.8-0.6
	c1.3-0.2,2.7-0.3,4.1-0.4c1.4-0.1,2.9-0.2,4.3-0.2S58.2,7,59.7,7c0.1,0,0.2,0,0.3,0C60.1,7,60.2,7,60.3,7c0.1,0,0.1,0,0.2,0
	c0.1,0,0.3,0,0.4,0c1.6,0,3.1,0,4.6,0.1c1.5,0.1,2.9,0.3,4.3,0.5c1.3,0.2,2.6,0.4,3.8,0.6c1.2,0.2,2.3,0.5,3.2,0.8
	c1.6,0.5,2.7,1,3.3,1.6c0.6,0.6,0.7,1.1,0.4,1.7c-0.4,0.6-1.2,1.1-2.5,1.6c-1.3,0.5-3,1-5.2,1.4c-0.8,0.1-1.6,0.3-2.5,0.4
	c-0.9,0.1-1.8,0.2-2.7,0.3c-0.9,0.1-1.9,0.1-2.8,0.1c-1,0-1.9,0-2.9,0c-1.2,0-2.4-0.1-3.5-0.2s-2.1-0.2-3-0.3
	c-0.9-0.1-1.8-0.2-2.6-0.4c-0.8-0.2-1.5-0.3-2.1-0.5c-1-0.3-1.7-0.7-2.1-1c-0.4-0.4-0.4-0.7-0.1-1.1c0.3-0.4,0.8-0.7,1.7-1.1
	c0.8-0.3,2-0.6,3.4-0.9c0.5-0.1,1.1-0.2,1.6-0.2s1.1-0.1,1.7-0.2c0.6,0,1.2-0.1,1.8-0.1c0.6,0,1.3,0,1.9,0c0.8,0,1.5,0,2.2,0.1
	c0.7,0,1.3,0.1,1.9,0.2c0.6,0.1,1.1,0.2,1.6,0.3s1,0.2,1.4,0.3c0.7,0.2,1.1,0.4,1.4,0.7c0.2,0.2,0.3,0.5,0.1,0.7
	c-0.2,0.2-0.5,0.5-1.1,0.7c-0.5,0.2-1.3,0.4-2.2,0.6c0.7-0.2,1.2-0.4,1.6-0.6c0.4-0.2,0.7-0.4,0.8-0.7c0.1-0.2,0-0.4-0.2-0.7
	c-0.2-0.2-0.6-0.4-1.2-0.6c-0.4-0.1-0.8-0.2-1.2-0.3c-0.5-0.1-0.9-0.2-1.5-0.2c-0.5-0.1-1.1-0.1-1.6-0.2c-0.6,0-1.2-0.1-1.8-0.1
	c-0.7,0-1.3,0-1.9,0c-0.6,0-1.2,0-1.8,0.1c-0.6,0-1.1,0.1-1.6,0.1c-0.5,0.1-1,0.1-1.5,0.2c-1.3,0.2-2.4,0.5-3.2,0.8
	c-0.8,0.3-1.3,0.6-1.6,1s-0.2,0.7,0.1,1c0.3,0.3,1,0.7,1.9,1c0.6,0.2,1.2,0.3,2,0.5s1.5,0.3,2.3,0.4c0.8,0.1,1.7,0.2,2.6,0.3
	c0.9,0.1,1.9,0.1,2.9,0.1c1.1,0,2.1,0,3.1,0c1,0,2-0.1,2.9-0.1c0.9-0.1,1.8-0.1,2.6-0.2c0.8-0.1,1.6-0.2,2.4-0.4
	c2.1-0.4,3.7-0.8,5-1.3c1.2-0.5,2-1,2.4-1.6c0.3-0.5,0.2-1.1-0.3-1.6c-0.6-0.5-1.6-1-3.1-1.5c-0.9-0.3-2-0.5-3.1-0.7
	c-1.1-0.2-2.3-0.4-3.6-0.6c-1.3-0.2-2.7-0.3-4.1-0.4c-1.4-0.1-2.9-0.2-4.5-0.2c-1.7,0-3.3,0-4.8,0c-1.5,0-3,0.1-4.4,0.2
	c-1.4,0.1-2.8,0.2-4.1,0.4s-2.5,0.3-3.7,0.5c-3.3,0.6-5.9,1.3-7.9,2c-2,0.8-3.3,1.6-4,2.5c-0.6,0.9-0.6,1.7,0.2,2.6
	c0.8,0.9,2.4,1.7,4.8,2.4c1.5,0.5,3.1,0.9,4.9,1.2c1.8,0.4,3.8,0.7,5.8,1c2.1,0.3,4.3,0.4,6.6,0.6c2.3,0.2,4.7,0.3,7.2,0.4
	c0.1,0,0.2,0,0.5,0c0.1,0,0.3,0,0.4,0c0.1,0,0.3,0,0.4,0c0.1,0,0.3,0,0.4,0c2.3,0,4.6,0,6.9,0c2.3-0.1,4.5-0.2,6.7-0.3
	c2.2-0.2,4.3-0.4,6.4-0.6c2.1-0.3,4-0.6,5.9-0.9c5-0.9,9-2,11.9-3.2c2.9-1.2,4.7-2.5,5.5-3.8c0.7-1.3,0.4-2.7-1-4
	c-1.4-1.3-4-2.6-7.6-3.7c-1.9-0.6-4-1.1-6.2-1.6c-2.3-0.5-4.7-0.9-7.3-1.2c-2.6-0.4-5.3-0.8-8-1c-2.8-0.2-5.7-0.5-8.6-0.6
	c-0.2,0-0.4,0-0.6,0c-0.2,0-0.4,0-0.6,0c-0.2,0-0.4,0.1-0.6,0.1c-0.2,0-0.4,0.1-0.6,0c-2.7,0-5.4,0-8.2,0.1
	c-2.7,0.1-5.5,0.2-8.2,0.5c-2.7,0.2-5.4,0.5-8.1,0.8c-2.7,0.3-5.3,0.7-7.9,1.2c-0.1,0-1.4,0.3-3.6,0.7c-2.1,0.5-5.1,1.2-8.2,2.2
	c-3.1,1-6.5,2.2-9.6,3.7c-3.1,1.5-5.8,3.3-7.6,5.3c-1.7,1.9-2.8,3.7-3,5.4c-0.2,1.7,0.6,3.5,2.6,5.2c2.1,1.8,5.5,3.6,10.6,5.6
	c5.1,2,12,4.2,21,6.6c6.1,1.7,13,3.1,20.2,4.2c7.2,1.2,14.7,2.1,22.1,2.8c7.4,0.7,14.6,1.3,21.2,1.7c6.6,0.4,12.6,0.6,17.5,0.8
	c3.5,0.1,7.1,0.2,10.8,0.3c3.6,0.1,7.3,0.2,11,0.3c3.7,0.1,7.4,0.2,11.2,0.2c3.8,0.1,7.6,0.1,11.4,0.2c6,0.1,12,0.1,18.1,0.2
	c6.1,0,12.2,0.1,18.4,0.1c6.2,0,12.4,0,18.6-0.1c6.2,0,12.4-0.1,18.6-0.2c4.8-0.1,10.8-0.2,17.3-0.3c6.5-0.2,13.7-0.4,21-0.7
	c7.3-0.3,14.8-0.8,22.1-1.3c7.2-0.5,14.2-1.2,20.5-2c7.9-1,18.3-2.4,29.4-4.1c11-1.7,22.6-3.7,33.1-5.9c10.4-2.2,19.5-4.5,25.9-7
	c6.2-2.4,9.7-4.9,8.7-7.5c1.3,2.6-2,5.1-8.2,7.5c-6.2,2.5-15.4,4.9-25.7,7c-10.4,2.2-22.1,4.2-33.1,5.9c-11.1,1.7-21.6,3.2-29.5,4.2
	c-6.3,0.8-13.4,1.5-20.7,2c-7.3,0.6-14.9,1-22.2,1.3c-7.4,0.3-14.6,0.6-21.1,0.7c-6.6,0.2-12.5,0.3-17.4,0.3
	c-6.2,0.1-12.4,0.1-18.6,0.2c-6.2,0-12.4,0.1-18.6,0.1c-6.2,0-12.3,0-18.4-0.1c-6.1,0-12.2-0.1-18.2-0.2c-3.8-0.1-7.6-0.1-11.4-0.2
	c-3.8-0.1-7.5-0.1-11.2-0.2c-3.7-0.1-7.4-0.2-11-0.3c-3.6-0.1-7.2-0.2-10.8-0.3c-4.9-0.2-10.9-0.4-17.6-0.8
	C91.7,46,84.4,45.5,77,44.8c-7.4-0.7-15-1.7-22.2-2.8c-7.2-1.2-14.2-2.6-20.3-4.3c-9-2.5-15.9-4.7-21.1-6.7c-5.1-2-8.5-3.8-10.6-5.6
	c-2.1-1.8-2.8-3.5-2.6-5.2c0.2-1.7,1.3-3.5,3-5.5c1.8-2.1,4.6-3.9,7.7-5.4c3.1-1.5,6.5-2.8,9.7-3.7c3.2-1,6.1-1.7,8.3-2.2
	c2.2-0.5,3.5-0.7,3.6-0.8c2.7-0.5,5.4-0.8,8.1-1.2c2.7-0.3,5.5-0.6,8.2-0.8c2.8-0.2,5.5-0.4,8.3-0.4C59.7,0,62.5,0,65.3,0
	c0.2,0,0.4,0,0.6,0c0.2,0,0.4,0,0.6,0c0.2,0,0.4,0,0.6,0c0.2,0,0.4,0,0.6,0c3,0.1,5.9,0.3,8.8,0.5c2.8,0.2,5.6,0.5,8.2,0.9
	c2.6,0.4,5.1,0.8,7.4,1.3c2.3,0.5,4.4,1,6.3,1.6c3.7,1.2,6.3,2.4,7.7,3.8c1.5,1.3,1.8,2.7,1,4.1c-0.8,1.4-2.6,2.7-5.6,3.9
	c-3,1.2-7,2.4-12.1,3.3c-1.9,0.4-3.9,0.7-6,0.9c-2.1,0.3-4.3,0.5-6.6,0.6c-2.3,0.2-4.6,0.3-6.9,0.4c-2.3,0.1-4.7,0.1-7.1,0.1
	c-0.1,0-0.3,0-0.4,0c-0.1,0-0.3,0-0.4,0"/>
<g enable-background="new    ">
	<defs>
		<path id="SVGID_7_" enable-background="new    " d="M412.3,20.4c-1.4,41-2.8,81.9-4.2,122.9c-0.1,3.1-4.1,6.3-10.6,9.3
			c-6.5,3-15.6,6-25.6,8.7c-10.1,2.7-21.1,5.2-31.6,7.3c-10.5,2.1-20.3,3.9-27.8,5.2c-6.3,1.1-13.2,1.9-20.4,2.7
			c-7.2,0.7-14.7,1.3-21.9,1.7c-7.3,0.4-14.4,0.8-20.8,1c-6.5,0.2-12.3,0.4-17.1,0.5c-6.1,0.1-12.2,0.2-18.4,0.3
			c-6.1,0.1-12.2,0.1-18.3,0.1c-6.1,0-12.2,0-18.2,0c-6,0-12-0.1-17.9-0.2c-3.8-0.1-7.5-0.1-11.2-0.2c-3.7-0.1-7.4-0.2-11.1-0.3
			c-3.7-0.1-7.3-0.2-10.9-0.3c-3.6-0.1-7.1-0.2-10.6-0.4c-4.9-0.2-10.8-0.5-17.3-1c-6.5-0.5-13.7-1.2-21-2.1
			c-7.3-0.9-14.8-2.1-21.9-3.6c-7.1-1.5-14-3.3-20.1-5.4c-6.4-2.3-11.8-4.4-16.2-6.3c-4.4-1.9-7.8-3.8-10.4-5.5
			c-2.6-1.7-4.4-3.4-5.6-5c-1.2-1.6-1.7-3.2-1.7-4.8L0,20.7c0,1.3,0.5,2.5,1.7,3.8c1.2,1.3,3,2.6,5.7,3.9c2.7,1.4,6.1,2.8,10.6,4.3
			c4.5,1.5,9.9,3.2,16.4,5c6.2,1.7,13.1,3.1,20.3,4.3C62,43.1,69.6,44,77,44.8c7.4,0.7,14.7,1.3,21.3,1.7c6.6,0.4,12.7,0.6,17.6,0.8
			c3.6,0.1,7.2,0.2,10.8,0.3c3.6,0.1,7.3,0.2,11,0.3c3.7,0.1,7.5,0.2,11.2,0.2c3.8,0.1,7.6,0.1,11.4,0.2c6,0.1,12.1,0.1,18.2,0.2
			c6.1,0,12.3,0.1,18.4,0.1c6.2,0,12.4,0,18.6-0.1c6.2,0,12.4-0.1,18.6-0.2c4.9-0.1,10.8-0.2,17.4-0.3c6.6-0.2,13.8-0.4,21.1-0.7
			c7.4-0.3,14.9-0.8,22.2-1.3c7.3-0.5,14.3-1.2,20.7-2c7.6-1,17.6-2.3,28.2-4c10.6-1.6,21.8-3.5,32-5.6c10.1-2.1,19.3-4.3,25.9-6.7
			C408.2,25.2,412.2,22.8,412.3,20.4z"/>
	</defs>
	<clipPath id="SVGID_9_">
		<use xlink:href="#SVGID_7_"  overflow="visible"/>
	</clipPath>
	<g clip-path="url(#SVGID_9_)">
		
			<linearGradient id="SVGID_10_" gradientUnits="userSpaceOnUse" x1="15.0488" y1="108.8623" x2="426.8936" y2="82.22" gradientTransform="matrix(0.9997 2.375543e-002 -2.375543e-002 0.9997 2.9516 -4.8294)">
			<stop  offset="0" style="stop-color:#363636"/>
			<stop  offset="0.1858" style="stop-color:#4A4A4A"/>
			<stop  offset="0.3757" style="stop-color:#8F8F8F"/>
			<stop  offset="0.5705" style="stop-color:#B0B0B0"/>
			<stop  offset="0.8185" style="stop-color:#BDBDBD"/>
			<stop  offset="1" style="stop-color:#D1D1D1"/>
		</linearGradient>
		<path fill="url(#SVGID_10_)" d="M410.8,28.5c0.2-0.2,0.4-0.4,0.6-0.6c0.2-0.2,0.3-0.4,0.4-0.6c0.1-0.2,0.2-0.4,0.3-0.6
			c0.1-0.2,0.1-0.4,0.1-0.6c-0.2,5-0.3,10-0.5,15.1c0,0.2,0,0.4-0.1,0.6c-0.1,0.2-0.1,0.4-0.3,0.6c-0.1,0.2-0.2,0.4-0.4,0.6
			c-0.2,0.2-0.3,0.4-0.6,0.6L410.8,28.5 M407.3,30.8l-0.5,15.2c-0.4,0.2-0.8,0.4-1.3,0.7c-0.5,0.2-0.9,0.4-1.4,0.7
			c-0.5,0.2-1,0.4-1.6,0.7s-1.1,0.4-1.7,0.7l0.5-15.3c0.6-0.2,1.1-0.4,1.7-0.6c0.5-0.2,1.1-0.4,1.6-0.6c0.5-0.2,1-0.4,1.4-0.6
			C406.4,31.3,406.9,31,407.3,30.8 M394.1,35.7l-0.5,15.4c-0.7,0.2-1.4,0.4-2.2,0.6c-0.7,0.2-1.5,0.4-2.3,0.6
			c-0.8,0.2-1.6,0.4-2.4,0.6c-0.8,0.2-1.6,0.4-2.4,0.6l0.5-15.5c0.8-0.2,1.6-0.4,2.4-0.6c0.8-0.2,1.6-0.4,2.4-0.6
			c0.8-0.2,1.5-0.4,2.3-0.6C392.7,36.1,393.4,35.9,394.1,35.7 M376.3,40l-0.5,15.6c-0.9,0.2-1.8,0.4-2.7,0.6
			c-0.9,0.2-1.8,0.4-2.7,0.6c-0.9,0.2-1.8,0.4-2.8,0.6c-0.9,0.2-1.9,0.4-2.8,0.5l0.5-15.6c0.9-0.2,1.9-0.4,2.8-0.5
			c0.9-0.2,1.9-0.4,2.8-0.5c0.9-0.2,1.8-0.4,2.7-0.5C374.5,40.3,375.4,40.2,376.3,40 M354.8,44l-0.4,15.7c-1,0.2-1.9,0.3-2.9,0.5
			c-1,0.2-1.9,0.3-2.8,0.5c-0.9,0.2-1.9,0.3-2.8,0.5c-0.9,0.2-1.9,0.3-2.8,0.5l0.4-15.8c0.9-0.1,1.9-0.3,2.8-0.4
			c0.9-0.1,1.9-0.3,2.8-0.5c0.9-0.2,1.9-0.3,2.9-0.5C352.9,44.3,353.8,44.2,354.8,44 M333.4,47.4L333,63.2c-0.9,0.1-1.8,0.3-2.6,0.4
			c-0.9,0.1-1.7,0.3-2.5,0.4c-0.8,0.1-1.7,0.2-2.5,0.4c-0.8,0.1-1.6,0.2-2.4,0.3l0.4-15.9c0.8-0.1,1.6-0.2,2.4-0.3
			c0.8-0.1,1.6-0.2,2.5-0.3c0.8-0.1,1.7-0.2,2.6-0.4C331.7,47.6,332.5,47.5,333.4,47.4 M315.2,49.9l-0.4,15.9
			c-1.1,0.1-2.2,0.3-3.3,0.4s-2.2,0.3-3.4,0.4c-1.1,0.1-2.3,0.3-3.5,0.4c-1.2,0.1-2.4,0.2-3.6,0.3l0.4-16c1.2-0.1,2.4-0.2,3.6-0.3
			c1.2-0.1,2.3-0.2,3.5-0.4c1.1-0.1,2.3-0.3,3.4-0.4C313.1,50.2,314.2,50,315.2,49.9 M287.9,52.4l-0.3,16c-1.3,0.1-2.5,0.2-3.8,0.2
			c-1.3,0.1-2.5,0.2-3.8,0.2s-2.5,0.1-3.8,0.2c-1.3,0.1-2.5,0.1-3.8,0.2l0.3-16.1c1.3-0.1,2.5-0.1,3.8-0.2c1.3-0.1,2.5-0.1,3.8-0.2
			c1.3-0.1,2.5-0.1,3.8-0.2C285.4,52.6,286.7,52.5,287.9,52.4 M259.4,53.8l-0.3,16.1c-1.2,0-2.3,0.1-3.5,0.1c-1.2,0-2.3,0.1-3.4,0.1
			c-1.1,0-2.2,0.1-3.3,0.1c-1.1,0-2.1,0.1-3.2,0.1l0.3-16.1c1,0,2.1,0,3.2-0.1c1.1,0,2.2-0.1,3.3-0.1c1.1,0,2.3-0.1,3.4-0.1
			C257,53.8,258.2,53.8,259.4,53.8 M235.4,54.3l-0.2,16.1c-0.1,0-0.2,0-0.3,0c-0.1,0-0.2,0-0.3,0c-0.1,0-0.2,0-0.3,0
			c-0.1,0-0.2,0-0.3,0c-1.1,0-2.1,0-3.2,0c-1.1,0-2.1,0-3.2,0c-1.1,0-2.1,0-3.2,0c-1.1,0-2.1,0-3.2,0l0.2-16.1c1.1,0,2.1,0,3.2,0
			c1.1,0,2.1,0,3.2,0c1.1,0,2.1,0,3.2,0s2.1,0,3.2,0c0.1,0,0.2,0,0.3,0c0.1,0,0.2,0,0.3,0c0.1,0,0.2,0,0.3,0
			C235.2,54.3,235.3,54.3,235.4,54.3 M207.6,54.6l-0.2,16.1c-1.2,0-2.5,0-3.7,0c-1.2,0-2.5,0-3.7,0c-1.2,0-2.5,0-3.7,0
			c-1.2,0-2.4,0-3.7,0l0.2-16.3c1.2,0,2.5-0.1,3.7-0.1c1.2,0,2.5,0,3.7,0c1.2,0,2.5,0.1,3.7,0.1S206.4,54.6,207.6,54.6 M179.5,54.5
			l-0.1,16.1c-1.2,0-2.4,0-3.6,0c-1.2,0-2.4,0-3.6,0c-1.2,0-2.4,0-3.6,0c-1.2,0-2.4,0-3.6,0l0.1-16.1c1.2,0,2.4,0,3.6,0
			c1.2,0,2.4,0,3.6,0c1.2,0,2.4,0,3.6,0C177,54.5,178.3,54.5,179.5,54.5 M151.4,54.2l-0.1,16.1c-1.2,0-2.5,0-3.7-0.1
			c-1.2,0-2.5,0-3.7-0.1c-1.2,0-2.5-0.1-3.7-0.1c-1.2,0-2.4-0.1-3.7-0.1l0.1-16.1c1.2,0,2.4,0.1,3.7,0.1c1.2,0,2.5,0.1,3.7,0.1
			c1.2,0,2.5,0,3.7,0.1C148.9,54.1,150.1,54.2,151.4,54.2 M124.5,53.6l0,16.1c-0.7,0-1.5,0-2.2-0.1c-0.7,0-1.4,0-2.2-0.1
			c-0.7,0-1.4,0-2.2-0.1c-0.7,0-1.4,0-2.1-0.1c-0.3,0-0.6,0-0.9,0c-0.3,0-0.6,0-0.9,0c-0.3,0-0.6,0-0.9,0c-0.3,0-0.6,0-1,0l0-16.1
			c0.3,0,0.6,0,1,0c0.3,0,0.6,0,0.9,0c0.3,0,0.6,0,0.9,0c0.3,0,0.6,0,0.9,0c0.7,0,1.4,0,2.1,0.1c0.7,0,1.4,0,2.2,0.1
			c0.7,0,1.4,0,2.2,0.1C123.1,53.5,123.8,53.5,124.5,53.6 M102.2,52.7l0,16.1c-1-0.1-2-0.1-3-0.2c-1-0.1-2-0.1-3-0.2
			c-1-0.1-2.1-0.1-3.1-0.2c-1.1-0.1-2.1-0.2-3.2-0.2l0-16.1c1.1,0.1,2.1,0.2,3.2,0.2c1.1,0.1,2.1,0.1,3.1,0.2c1,0.1,2,0.1,3.1,0.2
			C100.3,52.6,101.3,52.7,102.2,52.7 M77.7,50.9l0.1,16c-1.1-0.1-2.3-0.2-3.4-0.4c-1.1-0.1-2.3-0.3-3.4-0.4
			c-1.1-0.1-2.3-0.3-3.4-0.4c-1.1-0.1-2.3-0.3-3.4-0.5l-0.1-16c1.1,0.2,2.3,0.3,3.4,0.4c1.1,0.1,2.3,0.3,3.4,0.4
			c1.1,0.1,2.3,0.3,3.4,0.4C75.5,50.6,76.6,50.8,77.7,50.9 M51.8,47.4l0.1,15.9c-1.1-0.2-2.2-0.4-3.2-0.6c-1.1-0.2-2.1-0.4-3.2-0.6
			c-1-0.2-2.1-0.4-3.1-0.7c-1-0.2-2-0.5-3-0.7l-0.1-15.8c1,0.2,2,0.5,3,0.7c1,0.2,2.1,0.4,3.1,0.7c1,0.2,2.1,0.4,3.2,0.6
			C49.6,47,50.7,47.2,51.8,47.4 M28.4,41.9l0.1,15.7c-0.9-0.3-1.9-0.6-2.8-0.9c-0.9-0.3-1.7-0.6-2.6-0.8c-0.8-0.3-1.6-0.5-2.4-0.8
			c-0.8-0.3-1.5-0.5-2.3-0.8l-0.2-15.6c0.7,0.3,1.5,0.5,2.3,0.8c0.8,0.3,1.6,0.5,2.4,0.8c0.8,0.3,1.7,0.5,2.6,0.8
			C26.5,41.3,27.4,41.6,28.4,41.9 M11.4,36l0.2,15.6c-0.5-0.2-1.1-0.5-1.6-0.7c-0.5-0.2-1-0.5-1.4-0.7c-0.5-0.2-0.9-0.5-1.3-0.7
			C6.8,49.2,6.4,49,6,48.8L5.8,33.3C6.2,33.5,6.6,33.8,7,34c0.4,0.2,0.9,0.4,1.3,0.7c0.5,0.2,0.9,0.5,1.4,0.7
			C10.3,35.6,10.8,35.8,11.4,36 M2.5,30.9l0.2,15.4c-0.2-0.2-0.4-0.4-0.6-0.7c-0.2-0.2-0.4-0.4-0.5-0.6c-0.2-0.2-0.3-0.4-0.4-0.6
			c-0.1-0.2-0.2-0.4-0.3-0.6L0.6,28.4c0.1,0.2,0.2,0.4,0.3,0.6c0.1,0.2,0.3,0.4,0.4,0.6c0.2,0.2,0.3,0.4,0.5,0.6S2.3,30.7,2.5,30.9
			 M410.1,47.4c0.2-0.2,0.4-0.4,0.6-0.6c0.2-0.2,0.3-0.4,0.4-0.6c0.1-0.2,0.2-0.4,0.3-0.6c0.1-0.2,0.1-0.4,0.1-0.6
			c-0.9,24.8-1.7,49.7-2.6,74.5c0,0.2,0,0.5-0.1,0.7c-0.1,0.2-0.1,0.5-0.3,0.7c-0.1,0.2-0.2,0.5-0.4,0.7c-0.2,0.2-0.3,0.5-0.6,0.7
			L410.1,47.4 M408.1,49l-2.6,75.2c-2.3,1.8-5.7,3.5-9.8,5.2c-4.2,1.7-9.2,3.3-14.7,4.9c-5.5,1.6-11.5,3.1-17.7,4.5
			c-6.2,1.4-12.6,2.8-18.8,4l2.1-77.8c6.3-1.1,12.7-2.2,19-3.4c6.2-1.2,12.3-2.5,17.8-3.9c5.5-1.4,10.6-2.8,14.8-4.2
			C402.4,51.9,405.8,50.5,408.1,49 M340.1,66l-2.1,78c-2.3,0.4-4.6,0.9-6.9,1.3c-2.2,0.4-4.4,0.8-6.5,1.2c-2.1,0.4-4.1,0.7-6.1,1
			c-1.9,0.3-3.7,0.6-5.5,0.9c-4.4,0.7-9,1.3-13.9,1.9c-4.9,0.5-10,1-15.1,1.4c-5.1,0.4-10.3,0.7-15.3,1c-5,0.3-10,0.5-14.7,0.7
			l1.3-79.4c4.7-0.2,9.7-0.3,14.8-0.6c5.1-0.2,10.3-0.5,15.4-0.9c5.2-0.3,10.3-0.7,15.2-1.2c4.9-0.5,9.6-1,14-1.6
			c1.7-0.2,3.6-0.5,5.5-0.8c1.9-0.3,4-0.6,6.1-0.9c2.1-0.3,4.3-0.6,6.6-1C335.4,66.7,337.8,66.4,340.1,66 M247.7,74.2l-1.3,79.5
			c-1.3,0-2.5,0.1-3.8,0.1s-2.4,0.1-3.6,0.1c-1.2,0-2.3,0.1-3.3,0.1c-1.1,0-2.1,0-3.1,0.1c-6.1,0.1-12.3,0.2-18.4,0.3
			c-6.1,0.1-12.3,0.1-18.4,0.1c-6.1,0-12.2,0-18.2,0c-6,0-12-0.1-18-0.2c-0.5,0-1.1,0-1.6,0c-0.5,0-1.1,0-1.6,0c-0.5,0-1.1,0-1.6,0
			c-0.5,0-1.1,0-1.6,0l0.4-79.7c0.5,0,1.1,0,1.6,0c0.5,0,1.1,0,1.6,0c0.5,0,1.1,0,1.6,0c0.5,0,1.1,0,1.6,0c6,0.1,12,0.1,18.1,0.2
			c6.1,0,12.2,0.1,18.4,0.1c6.2,0,12.3,0,18.5-0.1c6.2,0,12.4-0.1,18.6-0.2c1,0,2,0,3.1,0c1.1,0,2.2,0,3.4-0.1c1.2,0,2.4,0,3.6-0.1
			C245.2,74.2,246.4,74.2,247.7,74.2 M145.1,74.2l-0.4,79.7c-2.5-0.1-4.9-0.1-7.4-0.2c-2.4-0.1-4.9-0.1-7.3-0.2
			c-2.4-0.1-4.8-0.1-7.2-0.2c-2.4-0.1-4.7-0.2-7.1-0.3c-3.5-0.1-7.4-0.3-11.8-0.6c-4.4-0.3-9.1-0.6-14-1.1c-4.9-0.4-10.1-1-15.3-1.7
			c-5.2-0.7-10.5-1.5-15.6-2.4l-0.4-78.9c5.2,0.8,10.5,1.5,15.8,2.1c5.3,0.6,10.5,1.1,15.5,1.5c5,0.4,9.8,0.7,14.2,0.9
			c4.4,0.2,8.4,0.4,11.9,0.5c2.4,0.1,4.8,0.2,7.2,0.2c2.4,0.1,4.8,0.1,7.3,0.2c2.4,0.1,4.9,0.1,7.4,0.2
			C140.1,74.1,142.6,74.2,145.1,74.2 M50.8,67.1l0.5,78.7c-1.4-0.3-2.8-0.6-4.2-1c-1.4-0.3-2.8-0.7-4.1-1c-1.3-0.4-2.7-0.7-4-1.1
			c-1.3-0.4-2.6-0.8-3.8-1.2c-5.6-1.9-10.4-3.6-14.4-5.3c-4-1.6-7.3-3.2-10-4.7c-2.6-1.5-4.7-2.9-6.2-4.3c-1.5-1.4-2.5-2.7-3-4.1
			L0.8,47.6c0.5,1.2,1.5,2.3,3,3.5c1.5,1.2,3.5,2.4,6.2,3.7c2.7,1.3,6,2.6,10.1,4c4.1,1.4,8.9,2.9,14.5,4.6c1.2,0.4,2.5,0.7,3.8,1
			c1.3,0.3,2.6,0.7,4,1c1.4,0.3,2.7,0.6,4.1,0.9C48,66.6,49.4,66.9,50.8,67.1 M0.3,45.4c0,0.4,0,0.4,0,0.5c0,0.1,0,0.1,0,0.2
			l0.9,75.4c0-0.4,0-0.5,0-0.5c0-0.1,0-0.1,0-0.2L0.3,45.4 M407.4,127.9c0.2-0.2,0.4-0.5,0.6-0.7c0.2-0.2,0.3-0.5,0.4-0.8
			c0.1-0.3,0.2-0.5,0.3-0.8c0.1-0.3,0.1-0.5,0.1-0.8c-0.2,4.9-0.3,9.8-0.5,14.7c0,0.3,0,0.5-0.1,0.8c-0.1,0.3-0.1,0.5-0.3,0.8
			c-0.1,0.3-0.3,0.5-0.4,0.8c-0.2,0.3-0.3,0.5-0.6,0.8L407.4,127.9 M403.9,130.8l-0.5,14.9c-0.4,0.3-0.8,0.5-1.3,0.8
			c-0.5,0.3-0.9,0.5-1.4,0.8c-0.5,0.3-1,0.5-1.5,0.8c-0.5,0.3-1.1,0.5-1.7,0.8l0.5-15c0.6-0.3,1.1-0.5,1.7-0.8
			c0.5-0.3,1.1-0.5,1.5-0.8c0.5-0.3,1-0.5,1.4-0.8C403,131.3,403.5,131,403.9,130.8 M390.9,136.7l-0.5,15.1
			c-0.7,0.3-1.4,0.5-2.2,0.8c-0.7,0.3-1.5,0.5-2.3,0.8c-0.8,0.3-1.5,0.5-2.3,0.8c-0.8,0.3-1.6,0.5-2.4,0.7l0.5-15.1
			c0.8-0.2,1.6-0.5,2.4-0.7c0.8-0.2,1.6-0.5,2.3-0.7c0.8-0.2,1.5-0.5,2.3-0.7C389.4,137.2,390.2,137,390.9,136.7 M373.2,142
			l-0.5,15.2c-0.9,0.2-1.8,0.5-2.7,0.7c-0.9,0.2-1.8,0.5-2.7,0.7c-0.9,0.2-1.8,0.5-2.7,0.7c-0.9,0.2-1.8,0.5-2.8,0.7l0.4-15.3
			c0.9-0.2,1.9-0.4,2.8-0.7c0.9-0.2,1.8-0.4,2.8-0.7c0.9-0.2,1.8-0.5,2.7-0.7C371.4,142.5,372.3,142.3,373.2,142 M351.9,147
			l-0.4,15.3c-0.9,0.2-1.9,0.4-2.8,0.6c-0.9,0.2-1.9,0.4-2.8,0.6c-0.9,0.2-1.9,0.4-2.8,0.6c-0.9,0.2-1.9,0.4-2.8,0.6l0.4-15.4
			c0.9-0.2,1.9-0.4,2.8-0.5c0.9-0.2,1.9-0.4,2.8-0.6c0.9-0.2,1.9-0.4,2.8-0.6C350,147.4,351,147.2,351.9,147 M330.8,151.2l-0.4,15.5
			c-0.9,0.2-1.7,0.3-2.6,0.5c-0.9,0.2-1.7,0.3-2.5,0.5s-1.6,0.3-2.4,0.4c-0.8,0.1-1.6,0.3-2.4,0.4l0.4-15.5c0.8-0.1,1.6-0.3,2.4-0.4
			c0.8-0.1,1.6-0.3,2.5-0.4c0.8-0.1,1.7-0.3,2.5-0.5C329,151.5,329.9,151.3,330.8,151.2 M312.8,154.3l-0.4,15.5
			c-1.1,0.2-2.1,0.4-3.2,0.5c-1.1,0.2-2.2,0.3-3.4,0.5c-1.1,0.2-2.3,0.3-3.4,0.5c-1.2,0.1-2.3,0.3-3.5,0.4l0.3-15.6
			c1.2-0.1,2.4-0.3,3.5-0.4c1.2-0.1,2.3-0.3,3.4-0.4c1.1-0.2,2.3-0.3,3.4-0.5C310.6,154.6,311.7,154.5,312.8,154.3 M285.8,157.4
			l-0.3,15.6c-1.2,0.1-2.5,0.2-3.7,0.3s-2.5,0.2-3.7,0.3c-1.2,0.1-2.5,0.2-3.7,0.3c-1.2,0.1-2.5,0.2-3.7,0.2l0.3-15.7
			c1.2-0.1,2.5-0.1,3.7-0.2c1.2-0.1,2.5-0.2,3.7-0.3c1.2-0.1,2.5-0.2,3.7-0.3C283.3,157.6,284.5,157.5,285.8,157.4 M257.5,159.2
			l-0.3,15.7c-1.2,0.1-2.3,0.1-3.5,0.1c-1.1,0-2.3,0.1-3.4,0.1c-1.1,0-2.2,0.1-3.3,0.1c-1.1,0-2.1,0.1-3.2,0.1l0.2-15.7
			c1,0,2.1-0.1,3.2-0.1c1.1,0,2.2-0.1,3.3-0.1c1.1,0,2.2-0.1,3.4-0.1C255.2,159.3,256.4,159.2,257.5,159.2 M233.9,159.7l-0.2,16
			c-0.1,0-0.2,0-0.3,0c-0.1,0-0.2,0-0.3,0c-0.1,0-0.2,0-0.3,0c-0.1,0-0.2,0-0.3,0c-1.1,0-2.1,0-3.2,0c-1.1,0-2.1,0-3.2,0
			c-1.1,0-2.1,0-3.2,0c-1.1,0-2.1,0-3.2,0l0.2-15.7c1.1,0,2.1,0,3.2,0c1.1,0,2.1,0,3.2,0c1.1,0,2.1-0.1,3.2-0.2
			c1.1,0,2.1-0.1,3.2-0.2c0.1,0,0.2,0,0.3,0c0.1,0,0.2,0,0.3,0c0.1,0,0.2,0,0.3,0s0.5,0,0.5,0 M206.4,160.3l-0.2,15.7
			c-1.2,0-2.4,0-3.6,0c-1.2,0-2.4,0-3.6,0c-1.2,0-2.4,0-3.6,0c-1.2,0-2.4,0-3.6,0l0.2-15.7c1.2,0,2.4,0,3.6,0c1.2,0,2.4,0,3.6,0
			c1.2,0,2.4,0,3.6,0C204,160.3,205.2,160.3,206.4,160.3 M178.6,160.3l-0.1,15.7c-1.2,0-2.4,0-3.6,0s-2.4,0-3.6,0s-2.4,0-3.6,0
			c-1.2,0-2.4,0-3.6,0l0.1-15.7c1.2,0,2.4,0,3.6,0c1.2,0,2.4,0,3.6,0c1.2,0,2.4,0,3.6,0C176.2,160.2,177.4,160.3,178.6,160.3
			 M150.9,159.9l-0.1,15.7c-1.2,0-2.5,0-3.7-0.1c-1.2,0-2.4-0.1-3.7-0.1c-1.2,0-2.4-0.1-3.6-0.1c-1.2,0-2.4-0.1-3.6-0.1l0.1-15.7
			c1.2,0,2.4,0.1,3.6,0.1c1.2,0,2.4,0.1,3.6,0.1c1.2,0,2.4,0,3.7,0C148.4,159.9,149.6,159.9,150.9,159.9 M124.3,159.2l0,15.7
			c-0.7,0-1.4,0-2.1-0.1c-0.7,0-1.4-0.1-2.1-0.1s-1.4-0.1-2.1-0.1c-0.7,0-1.4-0.1-2.1-0.1c-0.3,0-0.6,0-0.9,0c-0.3,0-0.6,0-0.9,0
			c-0.3,0-0.6,0-0.9,0c-0.3,0-0.6,0-0.9,0l0-15.7c0.3,0,0.6,0,0.9,0c0.3,0,0.6,0,0.9,0c0.3,0,0.6,0,0.9,0c0.3,0,0.6,0,0.9,0
			c0.7,0,1.4,0.1,2.1,0.1c0.7,0,1.4,0.1,2.1,0.1c0.7,0,1.4,0.1,2.1,0.1C122.9,159.2,123.6,159.2,124.3,159.2 M102.3,158.2l0,15.7
			c-1-0.1-1.9-0.1-2.9-0.2c-1-0.1-2-0.1-3-0.2c-1-0.1-2-0.2-3.1-0.3c-1-0.1-2.1-0.2-3.2-0.3l0-15.7c1.1,0.1,2.1,0.2,3.2,0.3
			c1,0.1,2.1,0.2,3.1,0.2c1,0.1,2,0.2,3,0.2C100.4,158.1,101.3,158.2,102.3,158.2 M78.1,156l0,15.7c-1.1-0.1-2.2-0.3-3.4-0.4
			c-1.1-0.1-2.2-0.3-3.4-0.5c-1.1-0.2-2.2-0.3-3.4-0.5s-2.2-0.4-3.4-0.5l-0.1-15.6c1.1,0.2,2.2,0.4,3.4,0.5c1.1,0.2,2.3,0.3,3.4,0.5
			c1.1,0.2,2.3,0.3,3.4,0.5C75.8,155.8,76.9,155.9,78.1,156 M52.4,151.9l0.1,15.6c-1.1-0.2-2.1-0.5-3.2-0.7
			c-1.1-0.3-2.1-0.5-3.1-0.8c-1-0.3-2.1-0.5-3.1-0.8c-1-0.3-2-0.6-3-0.9L40,148.8c1,0.3,2,0.6,3,0.8c1,0.3,2,0.5,3.1,0.8
			c1,0.3,2.1,0.5,3.1,0.8C50.3,151.4,51.4,151.7,52.4,151.9 M29.3,145.2l0.1,15.4c-0.9-0.3-1.8-0.7-2.7-1c-0.9-0.3-1.7-0.7-2.6-1
			c-0.8-0.3-1.6-0.7-2.4-1c-0.8-0.3-1.5-0.6-2.2-1l-0.1-15.3c0.7,0.3,1.5,0.6,2.2,0.9c0.8,0.3,1.6,0.6,2.4,1c0.8,0.3,1.7,0.6,2.6,1
			C27.4,144.5,28.3,144.8,29.3,145.2 M12.4,138l0.2,15.2c-0.5-0.3-1.1-0.6-1.6-0.9c-0.5-0.3-1-0.6-1.4-0.9c-0.5-0.3-0.9-0.6-1.3-0.8
			c-0.4-0.3-0.8-0.6-1.2-0.8L7,134.7c0.4,0.3,0.8,0.5,1.2,0.8c0.4,0.3,0.8,0.5,1.3,0.8c0.5,0.3,0.9,0.6,1.4,0.8
			C11.4,137.5,11.9,137.8,12.4,138 M3.7,131.8l0.2,15c-0.2-0.3-0.4-0.5-0.6-0.8c-0.2-0.3-0.4-0.5-0.5-0.8c-0.2-0.3-0.3-0.5-0.4-0.8
			c-0.1-0.3-0.2-0.5-0.3-0.8l-0.2-15c0.1,0.3,0.2,0.5,0.3,0.8c0.1,0.3,0.3,0.5,0.4,0.8s0.3,0.5,0.5,0.8S3.5,131.6,3.7,131.8 M0,20.7
			l1.5,124.2c0,1.6,0.5,3.2,1.7,4.8c1.2,1.6,3,3.3,5.6,5c2.6,1.7,6.1,3.6,10.4,5.5c4.4,2,9.7,4,16.2,6.3c6.1,2.1,12.9,3.9,20.1,5.4
			c7.2,1.5,14.6,2.6,21.9,3.6c7.3,0.9,14.5,1.6,21,2.1c6.5,0.5,12.5,0.8,17.3,1c3.5,0.1,7.1,0.3,10.6,0.4c3.6,0.1,7.2,0.2,10.9,0.3
			c3.7,0.1,7.3,0.2,11.1,0.3c3.7,0.1,7.5,0.1,11.2,0.2c5.9,0.1,11.9,0.2,17.9,0.2c6,0,12.1,0,18.2,0c6.1,0,12.2-0.1,18.3-0.1
			c6.1-0.1,12.2-0.2,18.4-0.3c4.8-0.1,10.6-0.2,17.1-0.5c6.5-0.2,13.6-0.6,20.8-1c7.3-0.4,14.7-1,21.9-1.7
			c7.2-0.7,14.1-1.6,20.4-2.7c7.5-1.3,17.3-3,27.8-5.2c10.4-2.1,21.5-4.6,31.6-7.3c10-2.7,19-5.6,25.6-8.7c6.5-3,10.5-6.1,10.6-9.3
			c1.4-41,2.8-81.9,4.2-122.9c-0.1,2.5-4.1,4.9-10.7,7.2c-6.6,2.4-15.7,4.6-25.9,6.7c-10.2,2.1-21.4,4-32,5.6
			c-10.6,1.6-20.6,3-28.2,4c-6.3,0.8-13.4,1.5-20.7,2c-7.3,0.6-14.9,1-22.2,1.3c-7.4,0.3-14.6,0.6-21.1,0.7
			c-6.6,0.2-12.5,0.3-17.4,0.3c-6.2,0.1-12.4,0.1-18.6,0.2c-6.2,0-12.4,0.1-18.6,0.1c-6.2,0-12.3,0-18.4-0.1
			c-6.1,0-12.2-0.1-18.2-0.2c-3.8-0.1-7.6-0.1-11.4-0.2c-3.8-0.1-7.5-0.1-11.2-0.2c-3.7-0.1-7.4-0.2-11-0.3
			c-3.6-0.1-7.2-0.2-10.8-0.3c-4.9-0.2-10.9-0.4-17.6-0.8C91.7,46,84.4,45.5,77,44.8c-7.4-0.7-15-1.7-22.2-2.8
			c-7.2-1.2-14.2-2.6-20.3-4.3c-6.5-1.8-12-3.4-16.4-5c-4.4-1.5-7.9-3-10.6-4.3c-2.6-1.4-4.5-2.7-5.7-3.9C0.5,23.2,0,21.9,0,20.7"/>
		<path fill="#3F3F3F" d="M410.1,47.4c0.2-0.2,0.4-0.4,0.6-0.6c0.2-0.2,0.3-0.4,0.4-0.6c0.1-0.2,0.2-0.4,0.3-0.6
			c0.1-0.2,0.1-0.4,0.1-0.6c-0.9,24.8-1.7,49.7-2.6,74.5c0,0.2,0,0.5-0.1,0.7c-0.1,0.2-0.1,0.5-0.3,0.7c-0.1,0.2-0.2,0.5-0.4,0.7
			c-0.2,0.2-0.3,0.5-0.6,0.7L410.1,47.4"/>
		
			<linearGradient id="SVGID_12_" gradientUnits="userSpaceOnUse" x1="344.9902" y1="91.8037" x2="406.3496" y2="91.8037" gradientTransform="matrix(0.9997 2.375543e-002 -2.375543e-002 0.9997 2.9516 -4.8294)">
			<stop  offset="0" style="stop-color:#0D0D0D"/>
			<stop  offset="0.5515" style="stop-color:#212121"/>
			<stop  offset="1" style="stop-color:#2E2E2E"/>
		</linearGradient>
		<path fill="url(#SVGID_12_)" d="M344.5,142.8c6.2-1.2,12.6-2.6,18.8-4c6.2-1.4,12.2-3,17.7-4.5c5.5-1.6,10.5-3.2,14.7-4.9
			c4.2-1.7,7.6-3.4,9.8-5.2l2.6-75.2c-2.3,1.5-5.7,3-9.9,4.4c-4.2,1.5-9.3,2.9-14.8,4.2c-5.6,1.4-11.6,2.7-17.8,3.9
			c-6.3,1.2-12.7,2.4-19,3.4L344.5,142.8"/>
		
			<linearGradient id="SVGID_13_" gradientUnits="userSpaceOnUse" x1="254.3682" y1="107.5166" x2="338.7549" y2="107.5166" gradientTransform="matrix(0.9997 2.375543e-002 -2.375543e-002 0.9997 2.9516 -4.8294)">
			<stop  offset="0" style="stop-color:#1F1F1F"/>
			<stop  offset="0.5515" style="stop-color:#171717"/>
			<stop  offset="1" style="stop-color:#1F1F1F"/>
		</linearGradient>
		<path fill="url(#SVGID_13_)" d="M254.2,153.4c4.7-0.2,9.6-0.4,14.7-0.7c5-0.3,10.2-0.6,15.3-1c5.1-0.4,10.2-0.9,15.1-1.4
			c4.9-0.5,9.6-1.2,13.9-1.9c1.7-0.3,3.5-0.6,5.5-0.9c1.9-0.3,3.9-0.7,6.1-1c2.1-0.4,4.3-0.8,6.5-1.2c2.2-0.4,4.5-0.8,6.9-1.3
			l2.1-78c-2.4,0.4-4.7,0.7-6.9,1.1c-2.3,0.3-4.5,0.7-6.6,1c-2.1,0.3-4.2,0.6-6.1,0.9c-1.9,0.3-3.8,0.5-5.5,0.8
			c-4.4,0.6-9.1,1.1-14,1.6c-4.9,0.5-10,0.9-15.2,1.2c-5.2,0.3-10.4,0.6-15.4,0.9c-5.1,0.2-10.1,0.4-14.8,0.6L254.2,153.4"/>
		
			<linearGradient id="SVGID_15_" gradientUnits="userSpaceOnUse" x1="152.6694" y1="114.2173" x2="247.1953" y2="114.2173" gradientTransform="matrix(0.9997 2.375543e-002 -2.375543e-002 0.9997 2.9516 -4.8294)">
			<stop  offset="0" style="stop-color:#0D0D0D"/>
			<stop  offset="0.497" style="stop-color:#1C1C1C"/>
			<stop  offset="1" style="stop-color:#292929"/>
		</linearGradient>
		<path fill="url(#SVGID_15_)" d="M153.3,154c0.5,0,1.1,0,1.6,0c0.5,0,1.1,0,1.6,0c0.5,0,1.1,0,1.6,0c0.5,0,1.1,0,1.6,0
			c5.9,0.1,11.9,0.1,18,0.2c6,0,12.1,0.1,18.2,0c6.1,0,12.2,0,18.4-0.1c6.1-0.1,12.3-0.1,18.4-0.3c1,0,2,0,3.1-0.1
			c1.1,0,2.2,0,3.3-0.1c1.2,0,2.3-0.1,3.6-0.1s2.5-0.1,3.8-0.1l1.3-79.5c-1.3,0-2.6,0.1-3.8,0.1c-1.2,0-2.4,0.1-3.6,0.1
			c-1.2,0-2.3,0-3.4,0.1c-1.1,0-2.1,0-3.1,0c-6.2,0.1-12.4,0.1-18.6,0.2c-6.2,0-12.4,0.1-18.5,0.1c-6.2,0-12.3,0-18.4-0.1
			c-6.1,0-12.1-0.1-18.1-0.2c-0.5,0-1.1,0-1.6,0c-0.5,0-1.1,0-1.6,0c-0.5,0-1.1,0-1.6,0c-0.5,0-1.1,0-1.6,0L153.3,154"/>
		
			<linearGradient id="SVGID_16_" gradientUnits="userSpaceOnUse" x1="57.3271" y1="113.6133" x2="145.5273" y2="113.6133" gradientTransform="matrix(0.9997 2.375543e-002 -2.375543e-002 0.9997 2.9516 -4.8294)">
			<stop  offset="0" style="stop-color:#000000"/>
			<stop  offset="1" style="stop-color:#1C1C1C"/>
		</linearGradient>
		<path fill="url(#SVGID_16_)" d="M59,147.3c5.1,0.9,10.4,1.7,15.6,2.4c5.2,0.7,10.4,1.2,15.3,1.7c5,0.4,9.7,0.8,14,1.1
			c4.4,0.3,8.3,0.5,11.8,0.6c2.3,0.1,4.7,0.2,7.1,0.3c2.4,0.1,4.8,0.2,7.2,0.2c2.4,0.1,4.9,0.1,7.3,0.2c2.4,0.1,4.9,0.1,7.4,0.2
			l0.4-79.7c-2.5-0.1-5-0.1-7.5-0.2c-2.5-0.1-4.9-0.1-7.4-0.2c-2.4-0.1-4.9-0.1-7.3-0.2c-2.4-0.1-4.8-0.1-7.2-0.2
			c-3.5-0.1-7.5-0.3-11.9-0.5c-4.4-0.2-9.2-0.5-14.2-0.9c-5-0.4-10.2-0.9-15.5-1.5c-5.3-0.6-10.6-1.3-15.8-2.1L59,147.3"/>
		
			<linearGradient id="SVGID_18_" gradientUnits="userSpaceOnUse" x1="-0.9243" y1="100.9346" x2="51.9375" y2="100.9346" gradientTransform="matrix(0.9997 2.375543e-002 -2.375543e-002 0.9997 2.9516 -4.8294)">
			<stop  offset="0" style="stop-color:#000000"/>
			<stop  offset="1" style="stop-color:#050505"/>
		</linearGradient>
		<path fill="url(#SVGID_18_)" d="M1.7,123.2c0.5,1.3,1.5,2.7,3,4.1c1.5,1.4,3.5,2.8,6.2,4.3c2.7,1.5,6,3,10,4.7
			c4,1.7,8.8,3.4,14.4,5.3c1.2,0.4,2.5,0.8,3.8,1.2c1.3,0.4,2.6,0.8,4,1.1c1.3,0.4,2.7,0.7,4.1,1c1.4,0.3,2.8,0.7,4.2,1l-0.5-78.7
			c-1.4-0.3-2.9-0.5-4.3-0.8c-1.4-0.3-2.8-0.6-4.1-0.9c-1.4-0.3-2.7-0.6-4-1c-1.3-0.3-2.6-0.7-3.8-1c-5.6-1.6-10.5-3.2-14.5-4.6
			c-4-1.4-7.4-2.8-10.1-4c-2.7-1.3-4.7-2.5-6.2-3.7c-1.5-1.2-2.5-2.3-3-3.5L1.7,123.2"/>
		<path fill="#050505" d="M0.3,45.4c0,0.4,0,0.4,0,0.5c0,0.1,0,0.1,0,0.2l0.9,75.4c0-0.4,0-0.5,0-0.5c0-0.1,0-0.1,0-0.2L0.3,45.4"/>
	</g>
</g>
<g>
	<g>
		<g enable-background="new    ">
			<g enable-background="new    ">
				<defs>
					<path id="SVGID_6_" enable-background="new    " d="M245.1,88.8c0,0.1,0,0.3,0,0.4c0,0.4,0.1,0.8,0.1,1.2
						c-0.1-1.3-0.5-2.8-1.2-4.4c-1.3-2.8-3.8-4.1-6.7-4.2l-0.1-1.6c3,0.1,5.5,1.3,6.7,4.2C244.6,86,245,87.5,245.1,88.8z"/>
				</defs>
				<clipPath id="SVGID_20_">
					<use xlink:href="#SVGID_6_"  overflow="visible"/>
				</clipPath>
				<g clip-path="url(#SVGID_20_)" enable-background="new    ">
					<path fill="#A31319" d="M237.3,81.8l-0.1-1.6c0,0,0,0,0.1,0L237.3,81.8C237.3,81.8,237.3,81.8,237.3,81.8"/>
					<path fill="#A41319" d="M237.3,81.8l-0.1-1.6c0.1,0,0.2,0,0.3,0l0.1,1.6C237.5,81.8,237.4,81.8,237.3,81.8"/>
					<path fill="#A51319" d="M237.6,81.8l-0.1-1.6c0.1,0,0.2,0,0.2,0l0.1,1.6C237.7,81.8,237.6,81.8,237.6,81.8"/>
					<path fill="#A61419" d="M237.8,81.8l-0.1-1.6c0.1,0,0.1,0,0.2,0l0.1,1.6C237.9,81.8,237.9,81.8,237.8,81.8"/>
					<path fill="#A71419" d="M238,81.8l-0.1-1.6c0.1,0,0.1,0,0.2,0l0.1,1.6C238.2,81.8,238.1,81.8,238,81.8"/>
					<path fill="#A81419" d="M238.2,81.9l-0.1-1.6c0.1,0,0.1,0,0.2,0l0.1,1.6C238.4,81.9,238.3,81.9,238.2,81.9"/>
					<path fill="#A9141A" d="M238.4,81.9l-0.1-1.6c0.1,0,0.1,0,0.2,0l0.1,1.6C238.6,81.9,238.5,81.9,238.4,81.9"/>
					<path fill="#AA141A" d="M238.6,81.9l-0.1-1.6c0.1,0,0.1,0,0.2,0l0.1,1.6C238.7,81.9,238.7,81.9,238.6,81.9"/>
					<path fill="#AA141A" d="M238.8,81.9l-0.1-1.6c0.1,0,0.1,0,0.2,0L239,82C238.9,82,238.9,82,238.8,81.9"/>
					<path fill="#AB141A" d="M239,82l-0.1-1.6c0.1,0,0.1,0,0.2,0l0.1,1.6C239.1,82,239,82,239,82"/>
					<path fill="#AC141A" d="M239.1,82l-0.1-1.6c0.1,0,0.1,0,0.2,0l0.1,1.6C239.2,82,239.2,82,239.1,82"/>
					<path fill="#AD141A" d="M239.3,82l-0.1-1.6c0.1,0,0.1,0,0.2,0l0.1,1.6C239.4,82.1,239.4,82.1,239.3,82"/>
					<path fill="#AE151A" d="M239.5,82.1l-0.1-1.6c0,0,0.1,0,0.1,0l0.1,1.6C239.6,82.1,239.5,82.1,239.5,82.1"/>
					<path fill="#AF151B" d="M239.6,82.1l-0.1-1.6c0,0,0.1,0,0.1,0l0.1,1.6C239.7,82.2,239.7,82.1,239.6,82.1"/>
					<path fill="#B0151B" d="M239.8,82.2l-0.1-1.6c0,0,0.1,0,0.1,0l0.1,1.6C239.8,82.2,239.8,82.2,239.8,82.2"/>
					<path fill="#B1151B" d="M239.9,82.2l-0.1-1.6c0,0,0.1,0,0.1,0l0.1,1.6C240,82.3,239.9,82.2,239.9,82.2"/>
					<path fill="#B2151B" d="M240,82.3l-0.1-1.6c0,0,0.1,0,0.1,0l0.1,1.6C240.1,82.3,240.1,82.3,240,82.3"/>
					<path fill="#B3151B" d="M240.2,82.3l-0.1-1.6c0,0,0.1,0,0.1,0.1l0.1,1.6C240.3,82.3,240.2,82.3,240.2,82.3"/>
					<path fill="#B4151B" d="M240.3,82.4l-0.1-1.6c0,0,0.1,0,0.1,0.1l0.1,1.6C240.4,82.4,240.3,82.4,240.3,82.4"/>
					<path fill="#B5151B" d="M240.4,82.4l-0.1-1.6c0,0,0.1,0,0.1,0.1l0.1,1.6C240.5,82.5,240.5,82.4,240.4,82.4"/>
					<path fill="#B5151C" d="M240.5,82.5l-0.1-1.6c0,0,0.1,0,0.1,0.1l0.1,1.6C240.6,82.5,240.6,82.5,240.5,82.5"/>
					<path fill="#B6161C" d="M240.7,82.5l-0.1-1.6c0,0,0.1,0,0.1,0.1l0.1,1.6C240.8,82.6,240.7,82.5,240.7,82.5"/>
					<path fill="#B7161C" d="M240.8,82.6l-0.1-1.6c0,0,0.1,0,0.1,0.1l0.1,1.6C240.9,82.6,240.8,82.6,240.8,82.6"/>
					<path fill="#B8161C" d="M240.9,82.6l-0.1-1.6c0,0,0.1,0,0.1,0.1l0.1,1.6C241,82.7,241,82.7,240.9,82.6"/>
					<path fill="#B9161C" d="M241,82.7l-0.1-1.6c0,0,0.1,0,0.1,0.1l0.1,1.6C241.1,82.8,241.1,82.7,241,82.7"/>
					<path fill="#BA161C" d="M241.2,82.8l-0.1-1.6c0,0,0.1,0,0.1,0.1l0.1,1.6C241.2,82.8,241.2,82.8,241.2,82.8"/>
					<path fill="#BB161C" d="M241.3,82.8l-0.1-1.6c0,0,0.1,0,0.1,0.1l0.1,1.6C241.3,82.9,241.3,82.9,241.3,82.8"/>
					<path fill="#BC161D" d="M241.4,82.9l-0.1-1.6c0,0,0.1,0,0.1,0.1l0.1,1.6C241.5,83,241.4,82.9,241.4,82.9"/>
					<path fill="#BD161D" d="M241.5,83l-0.1-1.6c0,0,0.1,0.1,0.1,0.1l0.1,1.6C241.6,83,241.5,83,241.5,83"/>
					<path fill="#BE161D" d="M241.6,83.1l-0.1-1.6c0,0,0.1,0.1,0.1,0.1l0.1,1.6C241.7,83.1,241.7,83.1,241.6,83.1"/>
					<path fill="#BF171D" d="M241.7,83.1l-0.1-1.6c0,0,0.1,0.1,0.1,0.1l0.1,1.6C241.8,83.2,241.8,83.2,241.7,83.1"/>
					<path fill="#BF171D" d="M241.8,83.2l-0.1-1.6c0,0,0.1,0.1,0.1,0.1l0.1,1.6C241.9,83.3,241.9,83.3,241.8,83.2"/>
					<path fill="#C0171D" d="M242,83.3l-0.1-1.6c0,0,0.1,0.1,0.1,0.1l0.1,1.6C242,83.4,242,83.3,242,83.3"/>
					<path fill="#C1171D" d="M242.1,83.4l-0.1-1.6c0,0,0.1,0.1,0.1,0.1l0.1,1.6C242.2,83.5,242.1,83.4,242.1,83.4"/>
					<path fill="#C2171D" d="M242.2,83.5l-0.1-1.6c0,0,0.1,0.1,0.1,0.1l0.1,1.6C242.3,83.6,242.2,83.5,242.2,83.5"/>
					<path fill="#C3171E" d="M242.3,83.6l-0.1-1.6c0,0,0.1,0.1,0.1,0.1l0.1,1.6C242.4,83.7,242.4,83.7,242.3,83.6"/>
					<path fill="#C4171E" d="M242.5,83.7l-0.1-1.6c0,0,0.1,0.1,0.1,0.1l0.1,1.6C242.5,83.8,242.5,83.8,242.5,83.7"/>
					<path fill="#C5171E" d="M242.6,83.9l-0.1-1.6c0,0,0.1,0.1,0.1,0.1l0.1,1.6C242.7,84,242.6,83.9,242.6,83.9"/>
					<path fill="#C6171E" d="M242.7,84l-0.1-1.6c0,0.1,0.1,0.1,0.1,0.2l0.1,1.6C242.8,84.1,242.8,84.1,242.7,84"/>
					<path fill="#C7171E" d="M242.9,84.2l-0.1-1.6c0.1,0.1,0.1,0.1,0.2,0.2l0.1,1.6C243,84.3,242.9,84.2,242.9,84.2"/>
					<path fill="#C8181E" d="M243,84.4l-0.1-1.6c0.1,0.1,0.1,0.2,0.2,0.2l0.1,1.6C243.1,84.5,243.1,84.4,243,84.4"/>
					<path fill="#C9181E" d="M243.2,84.6l-0.1-1.6c0.1,0.1,0.1,0.2,0.2,0.3l0.1,1.6C243.3,84.8,243.3,84.7,243.2,84.6"/>
					<path fill="#C9181F" d="M243.4,84.9l-0.1-1.6c0.1,0.2,0.2,0.3,0.3,0.5l0.1,1.6C243.6,85.2,243.5,85.1,243.4,84.9"/>
					<path fill="#CA181F" d="M243.7,85.4l-0.1-1.6c0.1,0.2,0.2,0.4,0.3,0.5c0.2,0.5,0.4,0.9,0.5,1.4l0.1,1.6
						c-0.2-0.4-0.3-0.9-0.5-1.4C243.9,85.7,243.8,85.6,243.7,85.4"/>
					<path fill="#C9181F" d="M244.5,87.3l-0.1-1.6c0.1,0.4,0.2,0.7,0.3,1l0.1,1.6C244.8,88,244.7,87.6,244.5,87.3"/>
					<path fill="#C9181E" d="M244.9,88.3l-0.1-1.6c0,0.2,0.1,0.4,0.1,0.6l0.1,1.6C245,88.7,244.9,88.5,244.9,88.3"/>
					<path fill="#C8181E" d="M245,88.9l-0.1-1.6c0,0.2,0.1,0.3,0.1,0.5l0.1,1.6C245.1,89.2,245,89.1,245,88.9"/>
					<path fill="#C7171E" d="M245.1,89.4l-0.1-1.6c0,0.1,0,0.2,0.1,0.3l0.1,1.6C245.1,89.6,245.1,89.5,245.1,89.4"/>
					<path fill="#C6171E" d="M245.1,89.7l-0.1-1.6c0,0.1,0,0.2,0,0.3l0.1,1.6C245.2,90,245.2,89.8,245.1,89.7"/>
					<path fill="#C5171E" d="M245.2,90.1l-0.1-1.6c0,0.1,0,0.2,0,0.3l0.1,1.6C245.2,90.2,245.2,90.2,245.2,90.1"/>
				</g>
			</g>
			<g enable-background="new    ">
				<defs>
					<path id="SVGID_4_" enable-background="new    " d="M156.4,120.5c0-0.5-0.1-1-0.1-1.6c-0.1-1.4,0.2-2.7,0.6-3.4
						c0.9-1.5,2.6-2.2,4.4-2.2c1.7,0,3.6,0.8,5,2.3c1.6,1.8,7.2,6.7,11.3,16c0.5,1.2,1.5,1.8,2.4,1.8c0.5,0,1-0.2,1.2-0.7
						c10.2-18.4,35.5-42.6,42.8-47.7c4.4-3,9.2-5,13.1-4.9l0.1,1.6c-3.9-0.1-8.8,1.8-13.1,4.9c-7.3,5.1-32.6,29.3-42.8,47.7
						c-0.3,0.5-0.7,0.7-1.2,0.7c-0.9,0-1.9-0.6-2.4-1.8c-4.1-9.4-9.7-14.3-11.3-16c-1.4-1.5-3.2-2.3-5-2.3c-1.8-0.1-3.5,0.7-4.4,2.2
						C156.6,117.8,156.3,119.1,156.4,120.5z"/>
				</defs>
				<clipPath id="SVGID_21_">
					<use xlink:href="#SVGID_4_"  overflow="visible"/>
				</clipPath>
				<g clip-path="url(#SVGID_21_)" enable-background="new    ">
					<path fill="#9B1218" d="M156.4,120.5l-0.1-1.6c-0.1-1.4,0.2-2.7,0.6-3.4c0.6-1,1.6-1.7,2.6-2l0.1,1.6c-1.1,0.3-2,1-2.6,2
						C156.6,117.8,156.3,119.1,156.4,120.5"/>
					<path fill="#9C1218" d="M159.7,115.1l-0.1-1.6c0.1,0,0.2-0.1,0.3-0.1l0.1,1.6C159.9,115,159.8,115,159.7,115.1"/>
					<path fill="#9D1318" d="M160,115l-0.1-1.6c0.1,0,0.2,0,0.2,0l0.1,1.6C160.1,115,160.1,115,160,115"/>
					<path fill="#9E1318" d="M160.2,114.9l-0.1-1.6c0.1,0,0.1,0,0.2,0l0.1,1.6C160.4,114.9,160.3,114.9,160.2,114.9"/>
					<path fill="#9F1318" d="M160.4,114.9l-0.1-1.6c0.1,0,0.1,0,0.2,0l0.1,1.6C160.6,114.9,160.5,114.9,160.4,114.9"/>
					<path fill="#A01318" d="M160.6,114.9l-0.1-1.6c0.1,0,0.1,0,0.2,0l0.1,1.6C160.7,114.9,160.7,114.9,160.6,114.9"/>
					<path fill="#A01318" d="M160.8,114.9l-0.1-1.6c0.1,0,0.1,0,0.2,0l0.1,1.6C160.9,114.9,160.9,114.9,160.8,114.9"/>
					<path fill="#A11319" d="M161,114.9l-0.1-1.6c0.1,0,0.1,0,0.2,0l0.1,1.6C161.1,114.9,161,114.9,161,114.9"/>
					<path fill="#A21319" d="M161.1,114.9l-0.1-1.6c0.1,0,0.1,0,0.2,0l0.1,1.6C161.2,114.9,161.2,114.9,161.1,114.9"/>
					<path fill="#A31319" d="M161.3,114.9l-0.1-1.6c0,0,0.1,0,0.1,0c0,0,0,0,0,0l0.1,1.6c0,0,0,0,0,0
						C161.4,114.9,161.3,114.9,161.3,114.9"/>
					<path fill="#A41319" d="M161.5,114.9l-0.1-1.6c0.1,0,0.1,0,0.2,0l0.1,1.6C161.6,114.9,161.5,114.9,161.5,114.9"/>
					<path fill="#A51319" d="M161.6,114.9l-0.1-1.6c0.1,0,0.1,0,0.2,0l0.1,1.6C161.7,114.9,161.7,114.9,161.6,114.9"/>
					<path fill="#A61419" d="M161.8,114.9l-0.1-1.6c0,0,0.1,0,0.1,0l0.1,1.6C161.9,114.9,161.8,114.9,161.8,114.9"/>
					<path fill="#A71419" d="M161.9,114.9l-0.1-1.6c0,0,0.1,0,0.1,0l0.1,1.6C162,114.9,162,114.9,161.9,114.9"/>
					<path fill="#A81419" d="M162,114.9l-0.1-1.6c0,0,0.1,0,0.1,0l0.1,1.6C162.1,114.9,162.1,114.9,162,114.9"/>
					<path fill="#A9141A" d="M162.2,114.9l-0.1-1.6c0,0,0.1,0,0.1,0l0.1,1.6C162.3,114.9,162.2,114.9,162.2,114.9"/>
					<path fill="#AA141A" d="M162.3,114.9l-0.1-1.6c0,0,0.1,0,0.1,0l0.1,1.6C162.4,115,162.4,115,162.3,114.9"/>
					<path fill="#AA141A" d="M162.5,115l-0.1-1.6c0,0,0.1,0,0.1,0l0.1,1.6C162.6,115,162.5,115,162.5,115"/>
					<path fill="#AB141A" d="M162.6,115l-0.1-1.6c0,0,0.1,0,0.1,0l0.1,1.6C162.7,115,162.6,115,162.6,115"/>
					<path fill="#AC141A" d="M162.7,115l-0.1-1.6c0,0,0.1,0,0.1,0l0.1,1.6C162.8,115,162.8,115,162.7,115"/>
					<path fill="#AD141A" d="M162.9,115.1l-0.1-1.6c0,0,0.1,0,0.1,0l0.1,1.6C163,115.1,162.9,115.1,162.9,115.1"/>
					<path fill="#AE151A" d="M163,115.1l-0.1-1.6c0,0,0.1,0,0.1,0l0.1,1.6C163.1,115.1,163,115.1,163,115.1"/>
					<path fill="#AF151B" d="M163.1,115.1l-0.1-1.6c0,0,0.1,0,0.1,0l0.1,1.6C163.2,115.2,163.2,115.1,163.1,115.1"/>
					<path fill="#B0151B" d="M163.3,115.2l-0.1-1.6c0,0,0.1,0,0.1,0l0.1,1.6C163.3,115.2,163.3,115.2,163.3,115.2"/>
					<path fill="#B1151B" d="M163.4,115.2l-0.1-1.6c0,0,0.1,0,0.1,0l0.1,1.6C163.5,115.2,163.4,115.2,163.4,115.2"/>
					<path fill="#B2151B" d="M163.5,115.3l-0.1-1.6c0,0,0.1,0,0.1,0l0.1,1.6C163.6,115.3,163.6,115.3,163.5,115.3"/>
					<path fill="#B3151B" d="M163.6,115.3l-0.1-1.6c0,0,0.1,0,0.1,0l0.1,1.6C163.7,115.3,163.7,115.3,163.6,115.3"/>
					<path fill="#B4151B" d="M163.8,115.3l-0.1-1.6c0,0,0.1,0,0.1,0.1l0.1,1.6C163.8,115.4,163.8,115.4,163.8,115.3"/>
					<path fill="#B5151B" d="M163.9,115.4l-0.1-1.6c0,0,0.1,0,0.1,0.1l0.1,1.6C164,115.4,163.9,115.4,163.9,115.4"/>
					<path fill="#B5151C" d="M164,115.5l-0.1-1.6c0,0,0.1,0,0.1,0.1l0.1,1.6C164.1,115.5,164.1,115.5,164,115.5"/>
					<path fill="#B6161C" d="M164.1,115.5l-0.1-1.6c0,0,0.1,0,0.1,0.1l0.1,1.6C164.2,115.5,164.2,115.5,164.1,115.5"/>
					<path fill="#B7161C" d="M164.3,115.6l-0.1-1.6c0,0,0.1,0,0.1,0.1l0.1,1.6C164.3,115.6,164.3,115.6,164.3,115.6"/>
					<path fill="#B8161C" d="M164.4,115.6l-0.1-1.6c0,0,0.1,0,0.1,0.1l0.1,1.6C164.5,115.7,164.4,115.7,164.4,115.6"/>
					<path fill="#B9161C" d="M164.5,115.7l-0.1-1.6c0,0,0.1,0,0.1,0.1l0.1,1.6C164.6,115.7,164.6,115.7,164.5,115.7"/>
					<path fill="#BA161C" d="M164.6,115.8l-0.1-1.6c0,0,0.1,0,0.1,0.1l0.1,1.6C164.7,115.8,164.7,115.8,164.6,115.8"/>
					<path fill="#BB161C" d="M164.8,115.8l-0.1-1.6c0,0,0.1,0.1,0.1,0.1l0.1,1.6C164.8,115.9,164.8,115.9,164.8,115.8"/>
					<path fill="#BC161D" d="M164.9,115.9l-0.1-1.6c0,0,0.1,0.1,0.1,0.1l0.1,1.6C165,116,164.9,115.9,164.9,115.9"/>
					<path fill="#BD161D" d="M165,116l-0.1-1.6c0,0,0.1,0.1,0.1,0.1l0.1,1.6C165.1,116.1,165.1,116,165,116"/>
					<path fill="#BE161D" d="M165.1,116.1l-0.1-1.6c0,0,0.1,0.1,0.1,0.1l0.1,1.6C165.2,116.1,165.2,116.1,165.1,116.1"/>
					<path fill="#BF171D" d="M165.3,116.2l-0.1-1.6c0,0,0.1,0.1,0.1,0.1l0.1,1.6C165.4,116.2,165.3,116.2,165.3,116.2"/>
					<path fill="#BF171D" d="M165.4,116.3l-0.1-1.6c0,0,0.1,0.1,0.1,0.1l0.1,1.6C165.5,116.3,165.4,116.3,165.4,116.3"/>
					<path fill="#C0171D" d="M165.5,116.4l-0.1-1.6c0,0,0.1,0.1,0.1,0.1l0.1,1.6C165.6,116.4,165.6,116.4,165.5,116.4"/>
					<path fill="#C1171D" d="M165.7,116.5l-0.1-1.6c0,0,0.1,0.1,0.1,0.1l0.1,1.6C165.8,116.5,165.7,116.5,165.7,116.5"/>
					<path fill="#C2171D" d="M165.8,116.6l-0.1-1.6c0,0,0.1,0.1,0.1,0.1l0.1,1.6C165.9,116.7,165.8,116.6,165.8,116.6"/>
					<path fill="#C3171E" d="M165.9,116.7l-0.1-1.6c0,0,0.1,0.1,0.1,0.1l0.1,1.6C166,116.8,166,116.7,165.9,116.7"/>
					<path fill="#C4171E" d="M166.1,116.8l-0.1-1.6c0,0,0.1,0.1,0.1,0.1l0.1,1.6C166.2,116.9,166.1,116.9,166.1,116.8"/>
					<path fill="#C5171E" d="M166.2,117l-0.1-1.6c0.1,0.1,0.1,0.1,0.2,0.2l0.1,1.6C166.3,117.1,166.3,117,166.2,117"/>
					<path fill="#C6171E" d="M166.4,117.1l-0.1-1.6c0,0,0,0,0,0c0,0,0,0,0.1,0.1l0.1,1.6C166.5,117.2,166.4,117.2,166.4,117.1
						C166.4,117.2,166.4,117.2,166.4,117.1"/>
					<path fill="#C5171E" d="M166.5,117.2l-0.1-1.6c0.5,0.5,1.4,1.4,2.4,2.5l0.1,1.6C167.8,118.6,167,117.8,166.5,117.2"/>
					<path fill="#C6171E" d="M168.9,119.7l-0.1-1.6c0.4,0.4,0.7,0.8,1.1,1.2l0.1,1.6C169.6,120.5,169.2,120.1,168.9,119.7"/>
					<path fill="#C7171E" d="M170,121l-0.1-1.6c0.4,0.4,0.7,0.9,1.1,1.3l0.1,1.6C170.7,121.8,170.4,121.4,170,121"/>
					<path fill="#C8181E" d="M171.1,122.3l-0.1-1.6c0.4,0.5,0.8,1,1.2,1.5l0.1,1.6C171.9,123.3,171.5,122.8,171.1,122.3"/>
					<path fill="#C9181E" d="M172.3,123.9l-0.1-1.6c0.5,0.6,0.9,1.3,1.4,2l0.1,1.6C173.2,125.1,172.8,124.5,172.3,123.9"/>
					<path fill="#C9181F" d="M173.7,125.8l-0.1-1.6c0.6,0.9,1.3,2,1.9,3.1l0.1,1.6C175,127.8,174.3,126.8,173.7,125.8"/>
					<path fill="#CA181F" d="M175.6,128.9l-0.1-1.6c0.7,1.3,1.5,2.8,2.1,4.3c0,0.1,0.1,0.2,0.1,0.3l0.1,1.6
						c-0.1-0.1-0.1-0.2-0.1-0.3C177,131.6,176.3,130.2,175.6,128.9"/>
					<path fill="#C9181F" d="M177.8,133.5l-0.1-1.6c0,0.1,0.1,0.2,0.1,0.2l0.1,1.6C177.9,133.6,177.9,133.6,177.8,133.5"/>
					<path fill="#C9181E" d="M178,133.7l-0.1-1.6c0,0,0.1,0.1,0.1,0.1l0.1,1.6C178,133.8,178,133.8,178,133.7"/>
					<path fill="#C8181E" d="M178.1,133.9l-0.1-1.6c0,0,0.1,0.1,0.1,0.1l0.1,1.6C178.1,133.9,178.1,133.9,178.1,133.9"/>
					<path fill="#C7171E" d="M178.2,134l-0.1-1.6c0,0,0,0.1,0.1,0.1L178.2,134C178.2,134,178.2,134,178.2,134"/>
					<path fill="#C6171E" d="M178.2,134.1l-0.1-1.6c0,0,0,0.1,0.1,0.1L178.2,134.1C178.3,134.1,178.3,134.1,178.2,134.1"/>
					<path fill="#C5171E" d="M178.3,134.1l-0.1-1.6c0,0,0,0,0.1,0.1L178.3,134.1C178.3,134.2,178.3,134.2,178.3,134.1"/>
					<path fill="#C4171E" d="M178.4,134.2l-0.1-1.6c0,0,0,0,0.1,0.1L178.4,134.2C178.4,134.2,178.4,134.2,178.4,134.2"/>
					<path fill="#C3171E" d="M178.4,134.3l-0.1-1.6c0,0,0,0,0.1,0.1L178.4,134.3C178.5,134.3,178.5,134.3,178.4,134.3"/>
					<path fill="#C2171D" d="M178.5,134.3l-0.1-1.6c0,0,0,0,0.1,0.1L178.5,134.3C178.5,134.3,178.5,134.3,178.5,134.3"/>
					<path fill="#C1171D" d="M178.6,134.4l-0.1-1.6c0,0,0,0,0.1,0L178.6,134.4C178.6,134.4,178.6,134.4,178.6,134.4"/>
					<path fill="#C0171D" d="M178.6,134.4l-0.1-1.6c0,0,0,0,0.1,0L178.6,134.4C178.6,134.4,178.6,134.4,178.6,134.4"/>
					<path fill="#BF171D" d="M178.7,134.5l-0.1-1.6c0,0,0,0,0.1,0L178.7,134.5C178.7,134.5,178.7,134.5,178.7,134.5"/>
					<path fill="#BF171D" d="M178.7,134.5l-0.1-1.6c0,0,0,0,0.1,0L178.7,134.5C178.8,134.5,178.7,134.5,178.7,134.5"/>
					<path fill="#BE161D" d="M178.8,134.5l-0.1-1.6c0,0,0,0,0.1,0L178.8,134.5C178.8,134.6,178.8,134.5,178.8,134.5"/>
					<path fill="#BD161D" d="M178.8,134.6l-0.1-1.6c0,0,0,0,0.1,0L178.8,134.6C178.9,134.6,178.8,134.6,178.8,134.6"/>
					<path fill="#BC161D" d="M178.9,134.6l-0.1-1.6c0,0,0,0,0.1,0L178.9,134.6C178.9,134.6,178.9,134.6,178.9,134.6"/>
					<path fill="#BB161C" d="M178.9,134.6l-0.1-1.6c0,0,0,0,0,0L178.9,134.6C179,134.7,178.9,134.6,178.9,134.6"/>
					<path fill="#BA161C" d="M179,134.7l-0.1-1.6c0,0,0,0,0,0L179,134.7C179,134.7,179,134.7,179,134.7"/>
					<path fill="#B9161C" d="M179,134.7l-0.1-1.6c0,0,0,0,0,0L179,134.7C179.1,134.7,179,134.7,179,134.7"/>
					<path fill="#B8161C" d="M179.1,134.7l-0.1-1.6c0,0,0,0,0,0L179.1,134.7C179.1,134.7,179.1,134.7,179.1,134.7"/>
					<path fill="#B7161C" d="M179.1,134.7l-0.1-1.6c0,0,0,0,0,0L179.1,134.7C179.1,134.8,179.1,134.8,179.1,134.7"/>
					<path fill="#B6161C" d="M179.2,134.8l-0.1-1.6c0,0,0,0,0,0L179.2,134.8C179.2,134.8,179.2,134.8,179.2,134.8"/>
					<path fill="#B5151C" d="M179.2,134.8l-0.1-1.6c0,0,0,0,0,0L179.2,134.8C179.2,134.8,179.2,134.8,179.2,134.8"/>
					<path fill="#B5151B" d="M179.3,134.8l-0.1-1.6c0,0,0,0,0,0L179.3,134.8C179.3,134.8,179.3,134.8,179.3,134.8"/>
					<path fill="#B4151B" d="M179.3,134.8l-0.1-1.6c0,0,0,0,0,0L179.3,134.8C179.3,134.8,179.3,134.8,179.3,134.8"/>
					<path fill="#B3151B" d="M179.3,134.9l-0.1-1.6c0,0,0,0,0,0L179.3,134.9C179.4,134.9,179.4,134.9,179.3,134.9"/>
					<path fill="#B2151B" d="M179.4,134.9l-0.1-1.6c0,0,0,0,0,0L179.4,134.9C179.4,134.9,179.4,134.9,179.4,134.9"/>
					<path fill="#B1151B" d="M179.4,134.9l-0.1-1.6c0,0,0,0,0,0L179.4,134.9C179.5,134.9,179.4,134.9,179.4,134.9"/>
					<path fill="#B0151B" d="M179.5,134.9l-0.1-1.6c0,0,0,0,0,0L179.5,134.9C179.5,134.9,179.5,134.9,179.5,134.9"/>
					<path fill="#AF151B" d="M179.5,134.9l-0.1-1.6c0,0,0,0,0,0L179.5,134.9C179.6,134.9,179.5,134.9,179.5,134.9"/>
					<path fill="#AE151A" d="M179.6,134.9l-0.1-1.6c0,0,0,0,0,0L179.6,134.9C179.6,134.9,179.6,134.9,179.6,134.9"/>
					<path fill="#AD141A" d="M179.6,134.9l-0.1-1.6c0,0,0,0,0,0L179.6,134.9C179.6,134.9,179.6,134.9,179.6,134.9"/>
					<path fill="#AC141A" d="M179.7,135l-0.1-1.6c0,0,0,0,0,0L179.7,135C179.7,135,179.7,135,179.7,135"/>
					<path fill="#AB141A" d="M179.7,135l-0.1-1.6c0,0,0,0,0,0L179.7,135C179.7,135,179.7,135,179.7,135"/>
					<path fill="#AA141A" d="M179.7,135l-0.1-1.6c0,0,0,0,0,0L179.7,135C179.8,135,179.8,135,179.7,135"/>
					<path fill="#AA141A" d="M179.8,135l-0.1-1.6c0,0,0,0,0,0L179.8,135C179.8,135,179.8,135,179.8,135"/>
					<path fill="#A9141A" d="M179.8,135l-0.1-1.6c0,0,0,0,0,0L179.8,135C179.9,135,179.8,135,179.8,135"/>
					<path fill="#A81419" d="M179.9,135l-0.1-1.6c0,0,0,0,0,0L179.9,135C179.9,135,179.9,135,179.9,135"/>
					<path fill="#A71419" d="M179.9,135l-0.1-1.6c0,0,0,0,0,0L179.9,135C179.9,135,179.9,135,179.9,135"/>
					<path fill="#A61419" d="M180,135l-0.1-1.6c0,0,0,0,0,0L180,135C180,135,180,135,180,135"/>
					<path fill="#A51319" d="M180,135l-0.1-1.6c0,0,0,0,0,0L180,135C180,135,180,135,180,135"/>
					<path fill="#A41319" d="M180.1,135l-0.1-1.6c0,0,0,0,0,0L180.1,135C180.1,135,180.1,135,180.1,135"/>
					<path fill="#A31319" d="M180.1,135l-0.1-1.6c0,0,0,0,0,0c0,0,0,0,0,0L180.1,135C180.1,135,180.1,135,180.1,135
						C180.1,135,180.1,135,180.1,135"/>
					<path fill="#A21319" d="M180.1,135l-0.1-1.6c0,0,0,0,0,0L180.1,135C180.2,135,180.2,135,180.1,135"/>
					<path fill="#A11319" d="M180.2,135l-0.1-1.6c0,0,0,0,0.1,0L180.2,135C180.2,135,180.2,135,180.2,135"/>
					<path fill="#A01318" d="M180.2,135l-0.1-1.6c0,0,0,0,0.1,0L180.2,135C180.3,135,180.3,135,180.2,135"/>
					<path fill="#A01318" d="M180.3,135l-0.1-1.6c0,0,0,0,0.1,0L180.3,135C180.3,135,180.3,135,180.3,135"/>
					<path fill="#9F1318" d="M180.3,135l-0.1-1.6c0,0,0,0,0.1,0L180.3,135C180.4,135,180.4,135,180.3,135"/>
					<path fill="#9E1318" d="M180.4,135l-0.1-1.6c0,0,0,0,0.1,0L180.4,135C180.4,135,180.4,135,180.4,135"/>
					<path fill="#9D1318" d="M180.5,135l-0.1-1.6c0,0,0,0,0.1,0L180.5,135C180.5,135,180.5,135,180.5,135"/>
					<path fill="#9C1218" d="M180.5,135l-0.1-1.6c0,0,0.1,0,0.1,0L180.5,135C180.6,135,180.6,135,180.5,135"/>
					<path fill="#9B1218" d="M180.6,135l-0.1-1.6c0.3-0.1,0.6-0.3,0.7-0.6c10.2-18.4,35.5-42.6,42.8-47.7c2.8-1.9,5.7-3.4,8.5-4.2
						l0.1,1.6c-2.8,0.8-5.7,2.3-8.5,4.2c-7.3,5.1-32.6,29.3-42.8,47.7C181.2,134.7,180.9,134.9,180.6,135"/>
					<path fill="#9C1218" d="M232.6,82.4l-0.1-1.6c0.4-0.1,0.7-0.2,1.1-0.3l0.1,1.6C233.3,82.2,233,82.3,232.6,82.4"/>
					<path fill="#9D1318" d="M233.7,82.2l-0.1-1.6c0.3-0.1,0.5-0.1,0.8-0.2l0.1,1.6C234.2,82.1,234,82.1,233.7,82.2"/>
					<path fill="#9E1318" d="M234.5,82l-0.1-1.6c0.2,0,0.4-0.1,0.6-0.1l0.1,1.6C234.9,81.9,234.7,82,234.5,82"/>
					<path fill="#9F1318" d="M235.1,81.9l-0.1-1.6c0.2,0,0.3,0,0.5-0.1l0.1,1.6C235.4,81.9,235.2,81.9,235.1,81.9"/>
					<path fill="#A01318" d="M235.6,81.9l-0.1-1.6c0.1,0,0.3,0,0.4,0l0.1,1.6C235.9,81.8,235.7,81.8,235.6,81.9"/>
					<path fill="#A01318" d="M236,81.8l-0.1-1.6c0.1,0,0.2,0,0.4,0l0.1,1.6C236.3,81.8,236.1,81.8,236,81.8"/>
					<path fill="#A11319" d="M236.4,81.8l-0.1-1.6c0.1,0,0.2,0,0.3,0l0.1,1.6C236.6,81.8,236.5,81.8,236.4,81.8"/>
					<path fill="#A21319" d="M236.7,81.8l-0.1-1.6c0.1,0,0.2,0,0.3,0l0.1,1.6C236.9,81.8,236.8,81.8,236.7,81.8"/>
					<path fill="#A31319" d="M237,81.8l-0.1-1.6c0.1,0,0.2,0,0.2,0l0.1,1.6C237.2,81.8,237.1,81.8,237,81.8"/>
				</g>
			</g>
			<g enable-background="new    ">
				<defs>
					<path id="SVGID_3_" enable-background="new    " d="M237.2,83.1l0-1.4c3,0.1,5.5,1.3,6.7,4.2c3.7,8.1-1.7,12-6.2,14.5
						c-13.5,7.8-36.6,20.6-54.2,48.5c-1.3,2.1-3.2,3.1-5,3c-1.7,0-3.3-1.1-3.9-3l1,0.1c0.5,1.5,1.6,2.2,3,2.3c1.4,0,3-0.8,4.1-2.5
						c17.8-28.2,41-41.1,54.5-48.9c4.3-2.5,9.1-6,5.8-13.3C242,84.3,239.9,83.2,237.2,83.1z"/>
				</defs>
				<clipPath id="SVGID_23_">
					<use xlink:href="#SVGID_3_"  overflow="visible"/>
				</clipPath>
				<g clip-path="url(#SVGID_23_)" enable-background="new    ">
					<path fill="#B0151B" d="M237.2,83.1l0-1.4c0,0,0,0,0.1,0L237.2,83.1C237.3,83.1,237.3,83.1,237.2,83.1"/>
					<path fill="#B1151B" d="M237.3,83.1l0-1.4c0.1,0,0.1,0,0.2,0l0,1.4C237.4,83.1,237.4,83.1,237.3,83.1"/>
					<path fill="#B2151B" d="M237.5,83.1l0-1.4c0.1,0,0.1,0,0.2,0l-0.1,1.4C237.6,83.1,237.5,83.1,237.5,83.1"/>
					<path fill="#B3151B" d="M237.6,83.1l0.1-1.4c0.1,0,0.1,0,0.2,0l-0.1,1.4C237.7,83.2,237.7,83.2,237.6,83.1"/>
					<path fill="#B4151B" d="M237.8,83.2l0.1-1.4c0.1,0,0.1,0,0.2,0l-0.1,1.3C237.8,83.2,237.8,83.2,237.8,83.2"/>
					<path fill="#B5151B" d="M237.9,83.2l0.1-1.3c0.1,0,0.1,0,0.2,0l-0.1,1.3C238,83.2,237.9,83.2,237.9,83.2"/>
					<path fill="#B5151C" d="M238,83.2l0.1-1.3c0,0,0.1,0,0.1,0l-0.1,1.3C238.1,83.2,238.1,83.2,238,83.2"/>
					<path fill="#B6161C" d="M238.2,83.2l0.1-1.3c0,0,0.1,0,0.1,0l-0.1,1.3C238.2,83.2,238.2,83.2,238.2,83.2"/>
					<path fill="#B7161C" d="M238.3,83.2l0.1-1.3c0,0,0.1,0,0.1,0l-0.2,1.3C238.4,83.2,238.3,83.2,238.3,83.2"/>
					<path fill="#B8161C" d="M238.4,83.2l0.2-1.3c0,0,0.1,0,0.1,0l-0.2,1.3C238.5,83.3,238.5,83.2,238.4,83.2"/>
					<path fill="#B9161C" d="M238.5,83.3l0.2-1.3c0,0,0.1,0,0.1,0l-0.2,1.3C238.6,83.3,238.6,83.3,238.5,83.3"/>
					<path fill="#BA161C" d="M238.6,83.3l0.2-1.3c0,0,0.1,0,0.1,0l-0.2,1.3C238.7,83.3,238.7,83.3,238.6,83.3"/>
					<path fill="#BB161C" d="M238.8,83.3L239,82c0,0,0.1,0,0.1,0l-0.2,1.3C238.8,83.3,238.8,83.3,238.8,83.3"/>
					<path fill="#BC161D" d="M238.9,83.3l0.2-1.3c0,0,0.1,0,0.1,0l-0.2,1.3C238.9,83.3,238.9,83.3,238.9,83.3"/>
					<path fill="#BD161D" d="M239,83.3l0.2-1.3c0,0,0.1,0,0.1,0l-0.3,1.3C239.1,83.4,239,83.4,239,83.3"/>
					<path fill="#BE161D" d="M239.1,83.4l0.3-1.3c0,0,0.1,0,0.1,0l-0.3,1.3C239.2,83.4,239.1,83.4,239.1,83.4"/>
					<path fill="#BF171D" d="M239.2,83.4l0.3-1.3c0,0,0.1,0,0.1,0l-0.3,1.3C239.3,83.4,239.2,83.4,239.2,83.4"/>
					<path fill="#BF171D" d="M239.3,83.4l0.3-1.3c0,0,0.1,0,0.1,0l-0.3,1.3C239.4,83.4,239.3,83.4,239.3,83.4"/>
					<path fill="#C0171D" d="M239.4,83.5l0.3-1.3c0,0,0.1,0,0.1,0L239.4,83.5C239.5,83.5,239.4,83.5,239.4,83.5"/>
					<path fill="#C1171D" d="M239.5,83.5l0.3-1.3c0,0,0.1,0,0.1,0L239.5,83.5C239.6,83.5,239.5,83.5,239.5,83.5"/>
					<path fill="#C2171D" d="M239.6,83.5l0.3-1.3c0,0,0.1,0,0.1,0L239.6,83.5C239.6,83.5,239.6,83.5,239.6,83.5"/>
					<path fill="#C3171E" d="M239.7,83.6l0.3-1.3c0,0,0.1,0,0.1,0L239.7,83.6C239.7,83.6,239.7,83.6,239.7,83.6"/>
					<path fill="#C4171E" d="M239.8,83.6l0.4-1.3c0,0,0.1,0,0.1,0L239.8,83.6C239.8,83.6,239.8,83.6,239.8,83.6"/>
					<path fill="#C5171E" d="M239.9,83.6l0.4-1.3c0,0,0.1,0,0.1,0L239.9,83.6C239.9,83.6,239.9,83.6,239.9,83.6"/>
					<path fill="#C6171E" d="M240,83.7l0.4-1.3c0,0,0.1,0,0.1,0L240,83.7C240,83.7,240,83.7,240,83.7"/>
					<path fill="#C7171E" d="M240,83.7l0.4-1.3c0,0,0.1,0,0.1,0L240,83.7C240.1,83.7,240.1,83.7,240,83.7"/>
					<path fill="#C8181E" d="M240.1,83.7l0.4-1.3c0,0,0.1,0,0.1,0L240.1,83.7C240.2,83.8,240.2,83.7,240.1,83.7"/>
					<path fill="#C9181E" d="M240.2,83.8l0.4-1.3c0,0,0.1,0,0.1,0L240.2,83.8C240.3,83.8,240.2,83.8,240.2,83.8"/>
					<path fill="#C9181F" d="M240.3,83.8l0.4-1.2c0,0,0.1,0,0.1,0L240.3,83.8C240.4,83.8,240.3,83.8,240.3,83.8"/>
					<path fill="#CA181F" d="M240.4,83.8l0.4-1.2c0,0,0.1,0,0.1,0L240.4,83.8C240.4,83.9,240.4,83.9,240.4,83.8"/>
					<path fill="#CB181F" d="M240.5,83.9l0.5-1.2c0,0,0.1,0,0.1,0.1L240.5,83.9C240.5,83.9,240.5,83.9,240.5,83.9"/>
					<path fill="#CC181F" d="M240.6,83.9l0.5-1.2c0,0,0.1,0,0.1,0.1L240.6,83.9C240.6,84,240.6,83.9,240.6,83.9"/>
					<path fill="#CD181F" d="M240.6,84l0.5-1.2c0,0,0.1,0,0.1,0.1L240.6,84C240.7,84,240.7,84,240.6,84"/>
					<path fill="#CE181F" d="M240.7,84l0.5-1.2c0,0,0.1,0,0.1,0.1L240.7,84C240.8,84.1,240.7,84,240.7,84"/>
					<path fill="#CF181F" d="M240.8,84.1l0.5-1.2c0,0,0.1,0,0.1,0.1L240.8,84.1C240.9,84.1,240.8,84.1,240.8,84.1"/>
					<path fill="#D01920" d="M240.9,84.1l0.5-1.2c0,0,0.1,0,0.1,0.1L240.9,84.1C240.9,84.2,240.9,84.1,240.9,84.1"/>
					<path fill="#D11920" d="M241,84.2l0.5-1.2c0,0,0.1,0,0.1,0.1L241,84.2C241,84.2,241,84.2,241,84.2"/>
					<path fill="#D21920" d="M241,84.2l0.5-1.2c0,0,0.1,0,0.1,0.1L241,84.2C241.1,84.3,241.1,84.3,241,84.2"/>
					<path fill="#D31920" d="M241.1,84.3l0.6-1.2c0,0,0.1,0,0.1,0.1L241.1,84.3C241.2,84.3,241.2,84.3,241.1,84.3"/>
					<path fill="#D41920" d="M241.2,84.3l0.6-1.2c0,0,0.1,0,0.1,0.1L241.2,84.3C241.3,84.4,241.2,84.4,241.2,84.3"/>
					<path fill="#D41920" d="M241.3,84.4l0.6-1.1c0,0,0.1,0.1,0.1,0.1L241.3,84.4C241.4,84.5,241.3,84.4,241.3,84.4"/>
					<path fill="#D51920" d="M241.4,84.5l0.6-1.1c0,0,0.1,0.1,0.1,0.1L241.4,84.5C241.4,84.5,241.4,84.5,241.4,84.5"/>
					<path fill="#D61921" d="M241.5,84.5l0.6-1.1c0,0,0.1,0.1,0.1,0.1L241.5,84.5C241.5,84.6,241.5,84.6,241.5,84.5"/>
					<path fill="#D71921" d="M241.6,84.6l0.6-1.1c0,0,0.1,0.1,0.1,0.1L241.6,84.6C241.6,84.7,241.6,84.6,241.6,84.6"/>
					<path fill="#D81A21" d="M241.6,84.7l0.6-1.1c0,0,0.1,0.1,0.1,0.1L241.6,84.7C241.7,84.8,241.7,84.7,241.6,84.7"/>
					<path fill="#D91A21" d="M241.7,84.8l0.7-1.1c0,0,0.1,0.1,0.1,0.1L241.7,84.8C241.8,84.8,241.8,84.8,241.7,84.8"/>
					<path fill="#DA1A21" d="M241.8,84.9l0.7-1.1c0,0,0.1,0.1,0.1,0.1l-0.7,1.1C241.9,84.9,241.9,84.9,241.8,84.9"/>
					<path fill="#DB1A21" d="M241.9,85l0.7-1.1c0,0,0.1,0.1,0.1,0.1l-0.7,1C242,85,242,85,241.9,85"/>
					<path fill="#DC1A21" d="M242,85.1l0.7-1c0,0,0.1,0.1,0.1,0.1l-0.7,1C242.1,85.2,242.1,85.1,242,85.1"/>
					<path fill="#DD1A22" d="M242.1,85.2l0.7-1c0,0.1,0.1,0.1,0.1,0.2l-0.7,1C242.2,85.3,242.2,85.2,242.1,85.2"/>
					<path fill="#DE1A22" d="M242.3,85.3l0.7-1c0.1,0.1,0.1,0.1,0.1,0.2l-0.8,1C242.3,85.4,242.3,85.4,242.3,85.3"/>
					<path fill="#DE1A22" d="M242.4,85.5l0.8-1c0.1,0.1,0.1,0.1,0.2,0.2l-0.8,0.9C242.5,85.6,242.4,85.6,242.4,85.5"/>
					<path fill="#DF1A22" d="M242.5,85.7l0.8-0.9c0.1,0.1,0.1,0.2,0.2,0.3l-0.8,0.9C242.6,85.9,242.6,85.8,242.5,85.7"/>
					<path fill="#E01B22" d="M242.7,86l0.8-0.9c0.1,0.2,0.3,0.5,0.4,0.7l-0.9,0.8C242.9,86.4,242.8,86.2,242.7,86"/>
					<path fill="#E11B22" d="M243,86.6l0.9-0.8c0,0,0,0.1,0.1,0.1c0.1,0.1,0.1,0.2,0.2,0.3l-0.9,0.7c0-0.1-0.1-0.2-0.1-0.3
						C243.1,86.7,243.1,86.6,243,86.6"/>
					<path fill="#E01B22" d="M243.2,87l0.9-0.7c0.3,0.6,0.5,1.2,0.6,1.7l-1,0.6C243.7,88.1,243.5,87.5,243.2,87"/>
					<path fill="#DF1A22" d="M243.8,88.6l1-0.6c0.1,0.2,0.1,0.4,0.2,0.6l-1,0.5C243.9,88.9,243.9,88.8,243.8,88.6"/>
					<path fill="#DE1A22" d="M244,89.1l1-0.5c0,0.2,0.1,0.3,0.1,0.5l-1,0.5C244,89.4,244,89.3,244,89.1"/>
					<path fill="#DE1A22" d="M244.1,89.6l1-0.5c0,0.1,0,0.3,0.1,0.4l-1,0.4C244.1,89.8,244.1,89.7,244.1,89.6"/>
					<path fill="#DD1A22" d="M244.1,89.9l1-0.4c0,0.1,0,0.2,0,0.3l-1,0.4C244.1,90.1,244.1,90,244.1,89.9"/>
					<path fill="#DC1A21" d="M244.2,90.2l1-0.4c0,0.1,0,0.2,0,0.3l-1,0.4C244.2,90.4,244.2,90.3,244.2,90.2"/>
					<path fill="#DB1A21" d="M244.2,90.5l1-0.4c0,0.1,0,0.2,0,0.3l-1,0.3C244.2,90.6,244.2,90.6,244.2,90.5"/>
					<path fill="#DA1A21" d="M244.2,90.7l1-0.3c0,0.1,0,0.1,0,0.2l-1,0.3C244.2,90.9,244.2,90.8,244.2,90.7"/>
					<path fill="#D91A21" d="M244.2,90.9l1-0.3c0,0.1,0,0.1,0,0.2l-1,0.3C244.2,91,244.2,91,244.2,90.9"/>
					<path fill="#D81A21" d="M244.2,91.1l1-0.3c0,0.1,0,0.1,0,0.2l-1,0.3C244.2,91.2,244.2,91.2,244.2,91.1"/>
					<path fill="#D71921" d="M244.2,91.3l1-0.3c0,0.1,0,0.1,0,0.2l-1,0.3C244.2,91.4,244.2,91.4,244.2,91.3"/>
					<path fill="#D61921" d="M244.2,91.5l1-0.3c0,0.1,0,0.1,0,0.2l-1,0.2C244.2,91.6,244.2,91.5,244.2,91.5"/>
					<path fill="#D51920" d="M244.2,91.6l1-0.2c0,0.1,0,0.1,0,0.2l-1,0.2C244.2,91.7,244.2,91.7,244.2,91.6"/>
					<path fill="#D41920" d="M244.2,91.8l1-0.2c0,0.1,0,0.1,0,0.2l-1,0.2C244.2,91.9,244.2,91.8,244.2,91.8"/>
					<path fill="#D41920" d="M244.2,91.9l1-0.2c0,0.1,0,0.1,0,0.2l-1,0.2C244.2,92,244.2,92,244.2,91.9"/>
					<path fill="#D31920" d="M244.2,92.1l1-0.2c0,0.1,0,0.1,0,0.2l-1,0.2C244.2,92.2,244.2,92.1,244.2,92.1"/>
					<path fill="#D21920" d="M244.2,92.2l1-0.2c0,0.1,0,0.1,0,0.2l-1,0.2C244.1,92.3,244.1,92.3,244.2,92.2"/>
					<path fill="#D11920" d="M244.1,92.3l1-0.2c0,0,0,0.1,0,0.1l-1,0.2C244.1,92.4,244.1,92.4,244.1,92.3"/>
					<path fill="#D01920" d="M244.1,92.5l1-0.2c0,0,0,0.1,0,0.1l-1,0.1C244.1,92.5,244.1,92.5,244.1,92.5"/>
					<path fill="#CF181F" d="M244.1,92.6l1-0.1c0,0,0,0.1,0,0.1l-1,0.1C244.1,92.7,244.1,92.6,244.1,92.6"/>
					<path fill="#CE181F" d="M244.1,92.7l1-0.1c0,0,0,0.1,0,0.1l-1,0.1C244.1,92.8,244.1,92.7,244.1,92.7"/>
					<path fill="#CD181F" d="M244,92.8l1-0.1c0,0,0,0.1,0,0.1l-1,0.1C244,92.9,244,92.9,244,92.8"/>
					<path fill="#CC181F" d="M244,92.9l1-0.1c0,0,0,0.1,0,0.1l-1,0.1C244,93,244,93,244,92.9"/>
					<path fill="#CB181F" d="M244,93.1l1-0.1c0,0,0,0.1,0,0.1l-1,0.1C244,93.1,244,93.1,244,93.1"/>
					<path fill="#CA181F" d="M244,93.2l1-0.1c0,0,0,0.1,0,0.1l-1,0.1C243.9,93.2,244,93.2,244,93.2"/>
					<path fill="#C9181F" d="M243.9,93.3l1-0.1c0,0,0,0.1,0,0.1l-1,0.1C243.9,93.3,243.9,93.3,243.9,93.3"/>
					<path fill="#C9181E" d="M243.9,93.4l1-0.1c0,0,0,0.1,0,0.1l-1,0.1C243.9,93.4,243.9,93.4,243.9,93.4"/>
					<path fill="#C8181E" d="M243.9,93.5l1-0.1c0,0,0,0.1,0,0.1l-1,0C243.8,93.5,243.9,93.5,243.9,93.5"/>
					<path fill="#C7171E" d="M243.8,93.6l1,0c0,0,0,0.1,0,0.1l-1,0C243.8,93.7,243.8,93.6,243.8,93.6"/>
					<path fill="#C6171E" d="M243.8,93.7l1,0c0,0,0,0.1,0,0.1l-1,0C243.8,93.8,243.8,93.7,243.8,93.7"/>
					<path fill="#C5171E" d="M243.8,93.8l1,0c0,0,0,0.1,0,0.1l-1,0C243.7,93.9,243.8,93.8,243.8,93.8"/>
					<path fill="#C4171E" d="M243.7,93.9l1,0c0,0,0,0.1,0,0.1l-0.9,0C243.7,94,243.7,93.9,243.7,93.9"/>
					<path fill="#C3171E" d="M243.7,94l0.9,0c0,0,0,0.1,0,0.1l-0.9,0C243.7,94.1,243.7,94,243.7,94"/>
					<path fill="#C2171D" d="M243.6,94.1l0.9,0c0,0,0,0.1,0,0.1l-0.9,0C243.6,94.2,243.6,94.1,243.6,94.1"/>
					<path fill="#C1171D" d="M243.6,94.2l0.9,0c0,0,0,0.1,0,0.1L243.6,94.2C243.6,94.3,243.6,94.2,243.6,94.2"/>
					<path fill="#C0171D" d="M243.6,94.3l0.9,0c0,0,0,0.1-0.1,0.1L243.6,94.3C243.5,94.4,243.5,94.3,243.6,94.3"/>
					<path fill="#BF171D" d="M243.5,94.4l0.9,0c0,0,0,0.1-0.1,0.1L243.5,94.4C243.5,94.5,243.5,94.4,243.5,94.4"/>
					<path fill="#BF171D" d="M243.5,94.5l0.9,0.1c0,0,0,0.1-0.1,0.1l-0.9-0.1C243.4,94.6,243.4,94.5,243.5,94.5"/>
					<path fill="#BE161D" d="M243.4,94.6l0.9,0.1c0,0,0,0.1-0.1,0.1l-0.9-0.1C243.4,94.7,243.4,94.6,243.4,94.6"/>
					<path fill="#BD161D" d="M243.3,94.7l0.9,0.1c0,0,0,0.1-0.1,0.1l-0.9-0.1C243.3,94.8,243.3,94.7,243.3,94.7"/>
					<path fill="#BC161D" d="M243.3,94.8l0.9,0.1c0,0,0,0.1-0.1,0.1l-0.9-0.1C243.3,94.9,243.3,94.8,243.3,94.8"/>
					<path fill="#BB161C" d="M243.2,94.9l0.9,0.1c0,0,0,0.1-0.1,0.1l-0.9-0.1C243.2,95,243.2,94.9,243.2,94.9"/>
					<path fill="#BA161C" d="M243.2,95l0.9,0.1c0,0,0,0.1-0.1,0.1L243.2,95C243.1,95.1,243.2,95,243.2,95"/>
					<path fill="#B9161C" d="M243.1,95.1l0.9,0.1c0,0,0,0.1-0.1,0.1l-0.9-0.1C243.1,95.2,243.1,95.1,243.1,95.1"/>
					<path fill="#B8161C" d="M243.1,95.2l0.9,0.1c0,0-0.1,0.1-0.1,0.1l-0.9-0.1C243,95.3,243,95.2,243.1,95.2"/>
					<path fill="#B7161C" d="M243,95.3l0.9,0.1c0,0-0.1,0.1-0.1,0.1l-0.9-0.1C242.9,95.4,243,95.4,243,95.3"/>
					<path fill="#B6161C" d="M242.9,95.4l0.9,0.1c0,0-0.1,0.1-0.1,0.1l-0.9-0.2C242.9,95.5,242.9,95.5,242.9,95.4"/>
					<path fill="#B5151C" d="M242.8,95.5l0.9,0.2c0,0-0.1,0.1-0.1,0.1l-0.9-0.2C242.8,95.6,242.8,95.6,242.8,95.5"/>
					<path fill="#B5151B" d="M242.8,95.6l0.9,0.2c0,0-0.1,0.1-0.1,0.1l-0.9-0.2C242.7,95.7,242.7,95.7,242.8,95.6"/>
					<path fill="#B4151B" d="M242.7,95.7l0.9,0.2c0,0-0.1,0.1-0.1,0.1l-0.8-0.2C242.6,95.8,242.6,95.8,242.7,95.7"/>
					<path fill="#B3151B" d="M242.6,95.9l0.8,0.2c0,0-0.1,0.1-0.1,0.1l-0.8-0.2C242.5,95.9,242.6,95.9,242.6,95.9"/>
					<path fill="#B2151B" d="M242.5,96l0.8,0.2c0,0-0.1,0.1-0.1,0.1l-0.8-0.2C242.4,96.1,242.5,96,242.5,96"/>
					<path fill="#B1151B" d="M242.4,96.1l0.8,0.2c0,0-0.1,0.1-0.1,0.1l-0.8-0.2C242.3,96.2,242.4,96.1,242.4,96.1"/>
					<path fill="#B0151B" d="M242.3,96.2l0.8,0.2c0,0-0.1,0.1-0.1,0.1l-0.8-0.2C242.2,96.3,242.3,96.3,242.3,96.2"/>
					<path fill="#AF151B" d="M242.2,96.3l0.8,0.2c0,0.1-0.1,0.1-0.1,0.2l-0.8-0.2C242.1,96.4,242.2,96.4,242.2,96.3"/>
					<path fill="#AE151A" d="M242.1,96.5l0.8,0.2c0,0.1-0.1,0.1-0.1,0.1l-0.8-0.3C242,96.6,242,96.5,242.1,96.5"/>
					<path fill="#AD141A" d="M241.9,96.6l0.8,0.3c0,0-0.1,0.1-0.1,0.1l-0.8-0.3C241.9,96.7,241.9,96.7,241.9,96.6"/>
					<path fill="#AC141A" d="M241.8,96.7l0.8,0.3c0,0-0.1,0.1-0.1,0.1l-0.8-0.3C241.7,96.8,241.8,96.8,241.8,96.7"/>
					<path fill="#AB141A" d="M241.7,96.9l0.8,0.3c-0.1,0.1-0.1,0.1-0.2,0.2l-0.8-0.3C241.6,97,241.6,96.9,241.7,96.9"/>
					<path fill="#AA141A" d="M241.5,97l0.8,0.3c-0.1,0.1-0.1,0.1-0.2,0.2l-0.7-0.3C241.4,97.1,241.5,97.1,241.5,97"/>
					<path fill="#AA141A" d="M241.3,97.2l0.7,0.3c-0.1,0.1-0.1,0.1-0.2,0.2l-0.7-0.3C241.2,97.3,241.3,97.2,241.3,97.2"/>
					<path fill="#A9141A" d="M241.2,97.4l0.7,0.3c-0.1,0.1-0.1,0.1-0.2,0.2l-0.7-0.3C241,97.5,241.1,97.4,241.2,97.4"/>
					<path fill="#A81419" d="M241,97.5l0.7,0.3c-0.1,0.1-0.2,0.1-0.2,0.2l-0.7-0.4C240.8,97.7,240.9,97.6,241,97.5"/>
					<path fill="#A71419" d="M240.7,97.7l0.7,0.4c-0.1,0.1-0.2,0.1-0.3,0.2l-0.7-0.4C240.6,97.8,240.7,97.8,240.7,97.7"/>
					<path fill="#A61419" d="M240.5,97.9l0.7,0.4c-0.1,0.1-0.2,0.2-0.3,0.2l-0.7-0.4C240.3,98.1,240.4,98,240.5,97.9"/>
					<path fill="#A51319" d="M240.2,98.1l0.7,0.4c-0.1,0.1-0.2,0.2-0.3,0.2l-0.6-0.4C240,98.3,240.1,98.2,240.2,98.1"/>
					<path fill="#A41319" d="M239.9,98.4l0.6,0.4c-0.1,0.1-0.3,0.2-0.4,0.3l-0.6-0.4C239.6,98.5,239.8,98.5,239.9,98.4"/>
					<path fill="#A31319" d="M239.5,98.6l0.6,0.4c-0.2,0.1-0.3,0.2-0.5,0.3L239,99C239.2,98.8,239.3,98.7,239.5,98.6"/>
					<path fill="#A21319" d="M239,99l0.6,0.4c-0.2,0.1-0.4,0.3-0.6,0.4l-0.5-0.5C238.6,99.2,238.8,99.1,239,99"/>
					<path fill="#A11319" d="M238.4,99.3l0.5,0.5c-0.3,0.2-0.6,0.4-0.9,0.5l-0.5-0.5C237.9,99.7,238.2,99.5,238.4,99.3"/>
					<path fill="#A01318" d="M237.6,99.8l0.5,0.5c-0.1,0-0.2,0.1-0.3,0.1c-1.4,0.8-2.9,1.6-4.4,2.6l-0.5-0.5
						c1.6-0.9,3.1-1.8,4.4-2.6C237.4,99.9,237.5,99.9,237.6,99.8"/>
					<path fill="#A11319" d="M232.9,102.5l0.5,0.5c-1.8,1.1-3.8,2.2-5.8,3.5l-0.5-0.5C229.1,104.8,231.1,103.6,232.9,102.5"/>
					<path fill="#A21319" d="M227.1,106l0.5,0.5c-1.3,0.8-2.6,1.6-4,2.5l-0.5-0.5C224.4,107.7,225.8,106.8,227.1,106"/>
					<path fill="#A31319" d="M223.1,108.6l0.5,0.5c-1.1,0.7-2.1,1.4-3.2,2.2l-0.6-0.4C220.9,110,222,109.3,223.1,108.6"/>
					<path fill="#A41319" d="M219.8,110.8l0.6,0.4c-0.9,0.6-1.9,1.3-2.8,2l-0.6-0.4C217.9,112.1,218.9,111.4,219.8,110.8"/>
					<path fill="#A51319" d="M216.9,112.8l0.6,0.4c-0.9,0.6-1.7,1.2-2.6,1.9l-0.6-0.4C215.2,114,216.1,113.4,216.9,112.8"/>
					<path fill="#A61419" d="M214.4,114.7l0.6,0.4c-0.8,0.6-1.6,1.2-2.3,1.8l-0.6-0.4C212.8,115.9,213.6,115.3,214.4,114.7"/>
					<path fill="#A71419" d="M212,116.5l0.6,0.4c-0.7,0.6-1.4,1.1-2.2,1.7l-0.6-0.4C210.6,117.7,211.3,117.1,212,116.5"/>
					<path fill="#A81419" d="M209.8,118.3l0.6,0.4c-0.7,0.6-1.4,1.1-2,1.7l-0.6-0.4C208.5,119.4,209.1,118.8,209.8,118.3"/>
					<path fill="#A9141A" d="M207.8,120l0.6,0.4c-0.6,0.6-1.3,1.1-1.9,1.7l-0.7-0.4C206.5,121.1,207.1,120.6,207.8,120"/>
					<path fill="#AA141A" d="M205.8,121.7l0.7,0.4c-0.6,0.5-1.2,1.1-1.8,1.6l-0.7-0.4C204.6,122.8,205.2,122.2,205.8,121.7"/>
					<path fill="#AA141A" d="M204,123.3l0.7,0.4c-0.6,0.5-1.2,1.1-1.7,1.6l-0.7-0.3C202.9,124.4,203.4,123.9,204,123.3"/>
					<path fill="#AB141A" d="M202.3,125l0.7,0.3c-0.5,0.5-1.1,1.1-1.6,1.6l-0.7-0.3C201.2,126,201.7,125.5,202.3,125"/>
					<path fill="#AC141A" d="M200.6,126.6l0.7,0.3c-0.5,0.5-1,1.1-1.6,1.6l-0.7-0.3C199.6,127.6,200.1,127.1,200.6,126.6"/>
					<path fill="#AD141A" d="M199.1,128.2l0.7,0.3c-0.5,0.5-1,1-1.5,1.6l-0.7-0.3C198,129.2,198.5,128.7,199.1,128.2"/>
					<path fill="#AE151A" d="M197.5,129.8l0.7,0.3c-0.5,0.5-1,1-1.4,1.6l-0.7-0.3C196.6,130.8,197,130.3,197.5,129.8"/>
					<path fill="#AF151B" d="M196.1,131.4l0.7,0.3c-0.5,0.5-0.9,1-1.4,1.6l-0.7-0.3C195.1,132.4,195.6,131.9,196.1,131.4"/>
					<path fill="#B0151B" d="M194.7,133l0.7,0.3c-0.5,0.5-0.9,1-1.4,1.6l-0.7-0.3C193.8,134,194.2,133.5,194.7,133"/>
					<path fill="#B1151B" d="M193.3,134.5l0.7,0.3c-0.4,0.5-0.9,1-1.3,1.6l-0.8-0.3C192.4,135.6,192.9,135.1,193.3,134.5"/>
					<path fill="#B2151B" d="M192,136.1l0.8,0.3c-0.4,0.5-0.9,1.1-1.3,1.6l-0.8-0.3C191.1,137.2,191.6,136.7,192,136.1"/>
					<path fill="#B3151B" d="M190.7,137.7l0.8,0.3c-0.4,0.5-0.8,1-1.2,1.6l-0.8-0.2C189.9,138.8,190.3,138.2,190.7,137.7"/>
					<path fill="#B4151B" d="M189.5,139.3l0.8,0.2c-0.4,0.5-0.8,1.1-1.2,1.6l-0.8-0.2C188.6,140.4,189.1,139.8,189.5,139.3"/>
					<path fill="#B5151B" d="M188.2,140.9l0.8,0.2c-0.4,0.5-0.8,1.1-1.2,1.6l-0.8-0.2C187.5,142,187.8,141.5,188.2,140.9"/>
					<path fill="#B5151C" d="M187.1,142.5l0.8,0.2c-0.4,0.5-0.8,1.1-1.1,1.6l-0.8-0.2C186.3,143.6,186.7,143.1,187.1,142.5"/>
					<path fill="#B6161C" d="M185.9,144.2l0.8,0.2c-0.4,0.5-0.7,1.1-1.1,1.6l-0.8-0.2C185.2,145.3,185.5,144.7,185.9,144.2"/>
					<path fill="#B7161C" d="M184.8,145.8l0.8,0.2c-0.4,0.5-0.7,1.1-1.1,1.6l-0.8-0.2C184.1,146.9,184.4,146.3,184.8,145.8"/>
					<path fill="#B8161C" d="M183.7,147.5l0.8,0.2c-0.3,0.5-0.6,0.9-0.9,1.4c0,0,0,0.1-0.1,0.1l-0.8-0.2c0,0,0-0.1,0-0.1
						C183.1,148.4,183.4,147.9,183.7,147.5"/>
					<path fill="#B7161C" d="M182.8,148.9l0.8,0.2c0,0,0,0.1-0.1,0.1L182.8,148.9C182.7,149,182.7,149,182.8,148.9"/>
					<path fill="#B6161C" d="M182.7,149l0.8,0.2c0,0,0,0.1-0.1,0.1L182.7,149C182.7,149.1,182.7,149.1,182.7,149"/>
					<path fill="#B5151C" d="M182.6,149.1l0.8,0.2c0,0,0,0.1-0.1,0.1L182.6,149.1C182.6,149.2,182.6,149.1,182.6,149.1"/>
					<path fill="#B5151B" d="M182.6,149.2l0.8,0.2c0,0,0,0.1-0.1,0.1L182.6,149.2C182.5,149.3,182.6,149.2,182.6,149.2"/>
					<path fill="#B4151B" d="M182.5,149.3l0.8,0.2c0,0,0,0.1-0.1,0.1L182.5,149.3C182.5,149.3,182.5,149.3,182.5,149.3"/>
					<path fill="#B3151B" d="M182.5,149.4l0.8,0.3c0,0,0,0.1-0.1,0.1L182.5,149.4C182.4,149.4,182.4,149.4,182.5,149.4"/>
					<path fill="#B2151B" d="M182.4,149.5l0.8,0.3c0,0,0,0.1-0.1,0.1L182.4,149.5C182.4,149.5,182.4,149.5,182.4,149.5"/>
					<path fill="#B1151B" d="M182.3,149.5l0.7,0.3c0,0-0.1,0.1-0.1,0.1L182.3,149.5C182.3,149.6,182.3,149.6,182.3,149.5"/>
					<path fill="#B0151B" d="M182.3,149.6l0.7,0.3c0,0-0.1,0.1-0.1,0.1L182.3,149.6C182.2,149.7,182.2,149.6,182.3,149.6"/>
					<path fill="#AF151B" d="M182.2,149.7l0.7,0.3c0,0-0.1,0.1-0.1,0.1L182.2,149.7C182.2,149.7,182.2,149.7,182.2,149.7"/>
					<path fill="#AE151A" d="M182.1,149.8l0.7,0.3c0,0-0.1,0.1-0.1,0.1L182.1,149.8C182.1,149.8,182.1,149.8,182.1,149.8"/>
					<path fill="#AD141A" d="M182.1,149.8l0.7,0.3c0,0-0.1,0.1-0.1,0.1L182.1,149.8C182,149.9,182,149.9,182.1,149.8"/>
					<path fill="#AC141A" d="M182,149.9l0.7,0.3c0,0-0.1,0.1-0.1,0.1L182,149.9C181.9,150,182,149.9,182,149.9"/>
					<path fill="#AB141A" d="M181.9,150l0.7,0.4c0,0-0.1,0.1-0.1,0.1L181.9,150C181.9,150,181.9,150,181.9,150"/>
					<path fill="#AA141A" d="M181.9,150.1l0.7,0.4c0,0-0.1,0.1-0.1,0.1L181.9,150.1C181.8,150.1,181.8,150.1,181.9,150.1"/>
					<path fill="#AA141A" d="M181.8,150.1l0.6,0.4c0,0-0.1,0.1-0.1,0.1L181.8,150.1C181.7,150.2,181.8,150.1,181.8,150.1"/>
					<path fill="#A9141A" d="M181.7,150.2l0.6,0.4c0,0-0.1,0.1-0.1,0.1L181.7,150.2C181.6,150.2,181.7,150.2,181.7,150.2"/>
					<path fill="#A81419" d="M181.6,150.3l0.6,0.4c0,0-0.1,0.1-0.1,0.1L181.6,150.3C181.6,150.3,181.6,150.3,181.6,150.3"/>
					<path fill="#A71419" d="M181.5,150.3l0.6,0.4c0,0-0.1,0.1-0.1,0.1L181.5,150.3C181.5,150.4,181.5,150.4,181.5,150.3"/>
					<path fill="#A61419" d="M181.5,150.4l0.6,0.4c0,0-0.1,0.1-0.1,0.1L181.5,150.4C181.4,150.4,181.4,150.4,181.5,150.4"/>
					<path fill="#A51319" d="M181.4,150.5l0.6,0.4c0,0-0.1,0.1-0.1,0.1L181.4,150.5C181.3,150.5,181.3,150.5,181.4,150.5"/>
					<path fill="#A41319" d="M181.3,150.5l0.5,0.5c0,0-0.1,0.1-0.1,0.1L181.3,150.5C181.2,150.6,181.2,150.6,181.3,150.5"/>
					<path fill="#A31319" d="M181.2,150.6l0.5,0.5c0,0-0.1,0.1-0.1,0.1L181.2,150.6C181.1,150.7,181.1,150.6,181.2,150.6"/>
					<path fill="#A21319" d="M181.1,150.7l0.5,0.5c0,0-0.1,0.1-0.1,0.1l-0.5-0.5C181,150.7,181,150.7,181.1,150.7"/>
					<path fill="#A11319" d="M181,150.7l0.5,0.5c0,0-0.1,0.1-0.1,0.1l-0.5-0.5C180.9,150.8,180.9,150.8,181,150.7"/>
					<path fill="#A01318" d="M180.9,150.8l0.5,0.5c0,0-0.1,0.1-0.1,0.1l-0.4-0.5C180.8,150.9,180.8,150.8,180.9,150.8"/>
					<path fill="#A01318" d="M180.7,150.9l0.4,0.5c-0.1,0-0.1,0.1-0.2,0.1l-0.4-0.5C180.7,150.9,180.7,150.9,180.7,150.9"/>
					<path fill="#9F1318" d="M180.6,150.9l0.4,0.5c-0.1,0-0.1,0.1-0.2,0.1l-0.4-0.6C180.5,151,180.6,151,180.6,150.9"/>
					<path fill="#9E1318" d="M180.5,151l0.4,0.6c-0.1,0-0.1,0.1-0.2,0.1l-0.3-0.6C180.4,151.1,180.4,151,180.5,151"/>
					<path fill="#9D1318" d="M180.3,151.1l0.3,0.6c-0.1,0-0.2,0.1-0.2,0.1l-0.3-0.6C180.2,151.1,180.3,151.1,180.3,151.1"/>
					<path fill="#9C1218" d="M180.1,151.2l0.3,0.6c-0.1,0-0.2,0.1-0.3,0.1l-0.2-0.6C180,151.2,180,151.2,180.1,151.2"/>
					<path fill="#9B1218" d="M179.9,151.2l0.2,0.6c-0.5,0.1-1,0.2-1.5,0.2c-1.7,0-3.3-1.1-3.9-3l1,0.1c0.5,1.5,1.6,2.2,3,2.3
						C179.1,151.4,179.5,151.4,179.9,151.2"/>
				</g>
			</g>
			<g enable-background="new    ">
				<defs>
					<path id="SVGID_2_" enable-background="new    " d="M175.7,149.1l-1-0.1c-3.5-10.1-14.4-22.5-16.4-24.2
						c-2.5-2.2-2.3-6.2-1.3-7.8c0.9-1.5,2.6-2.2,4.4-2.2c1.7,0,3.6,0.8,5,2.3c1.6,1.8,7.2,6.7,11.3,16c0.5,1.2,1.5,1.8,2.4,1.8
						c0.5,0,1-0.2,1.2-0.7c10.2-18.4,35.5-42.6,42.8-47.7c4.4-3,9.2-5,13.1-4.9l0,1.4c-3.7-0.1-8.3,1.8-12.5,4.7
						c-7.2,5-32.4,29.1-42.5,47.4c-0.5,0.8-1.3,1.2-2.1,1.2c-1.3,0-2.6-0.9-3.3-2.4c-4-9.2-9.5-14-11.1-15.8c-1.2-1.3-2.8-1.9-4.3-2
						c-1.5,0-2.8,0.5-3.5,1.7c-0.7,1.2-0.9,4.7,1.1,6.5C161.1,126.3,172.1,138.7,175.7,149.1z"/>
				</defs>
				<clipPath id="SVGID_24_">
					<use xlink:href="#SVGID_2_"  overflow="visible"/>
				</clipPath>
				<g clip-path="url(#SVGID_24_)" enable-background="new    ">
					<path fill="#9B1218" d="M175.7,149.1l-1-0.1c-3.5-10.1-14.4-22.5-16.4-24.2c-2.5-2.2-2.3-6.2-1.3-7.8c0.4-0.6,0.9-1.1,1.5-1.5
						l0.6,1.2c-0.5,0.3-0.8,0.6-1.1,1.1c-0.7,1.2-0.9,4.7,1.1,6.5C161.1,126.3,172.1,138.7,175.7,149.1"/>
					<path fill="#9C1218" d="M159,116.8l-0.6-1.2c0.1,0,0.2-0.1,0.2-0.1l0.5,1.2C159.2,116.7,159.1,116.8,159,116.8"/>
					<path fill="#9D1318" d="M159.2,116.7l-0.5-1.2c0.1,0,0.1-0.1,0.2-0.1l0.5,1.2C159.3,116.6,159.3,116.7,159.2,116.7"/>
					<path fill="#9E1318" d="M159.4,116.6l-0.5-1.2c0.1,0,0.1-0.1,0.2-0.1l0.4,1.3C159.5,116.6,159.4,116.6,159.4,116.6"/>
					<path fill="#9F1318" d="M159.5,116.5l-0.4-1.3c0.1,0,0.1,0,0.2-0.1l0.4,1.3C159.6,116.5,159.6,116.5,159.5,116.5"/>
					<path fill="#A01318" d="M159.7,116.5l-0.4-1.3c0,0,0.1,0,0.1-0.1l0.4,1.3C159.7,116.5,159.7,116.5,159.7,116.5"/>
					<path fill="#A01318" d="M159.8,116.5l-0.4-1.3c0,0,0.1,0,0.1,0l0.4,1.3C159.8,116.4,159.8,116.4,159.8,116.5"/>
					<path fill="#A11319" d="M159.9,116.4l-0.4-1.3c0,0,0.1,0,0.1,0l0.3,1.3C160,116.4,159.9,116.4,159.9,116.4"/>
					<path fill="#A21319" d="M160,116.4l-0.3-1.3c0,0,0.1,0,0.1,0l0.3,1.3C160.1,116.4,160,116.4,160,116.4"/>
					<path fill="#A31319" d="M160.1,116.4l-0.3-1.3c0,0,0.1,0,0.1,0l0.3,1.3C160.2,116.3,160.1,116.3,160.1,116.4"/>
					<path fill="#A41319" d="M160.2,116.3l-0.3-1.3c0,0,0.1,0,0.1,0L160.2,116.3C160.3,116.3,160.2,116.3,160.2,116.3"/>
					<path fill="#A51319" d="M160.3,116.3L160,115c0,0,0.1,0,0.1,0L160.3,116.3C160.4,116.3,160.3,116.3,160.3,116.3"/>
					<path fill="#A61419" d="M160.4,116.3l-0.2-1.3c0,0,0.1,0,0.1,0L160.4,116.3C160.4,116.3,160.4,116.3,160.4,116.3"/>
					<path fill="#A71419" d="M160.5,116.3l-0.2-1.3c0,0,0.1,0,0.1,0L160.5,116.3C160.5,116.3,160.5,116.3,160.5,116.3"/>
					<path fill="#A81419" d="M160.6,116.3l-0.2-1.3c0,0,0.1,0,0.1,0L160.6,116.3C160.6,116.3,160.6,116.3,160.6,116.3"/>
					<path fill="#A9141A" d="M160.7,116.2l-0.2-1.3c0,0,0.1,0,0.1,0L160.7,116.2C160.7,116.2,160.7,116.2,160.7,116.2"/>
					<path fill="#AA141A" d="M160.8,116.2l-0.1-1.3c0,0,0.1,0,0.1,0L160.8,116.2C160.8,116.2,160.8,116.2,160.8,116.2"/>
					<path fill="#AA141A" d="M160.8,116.2l-0.1-1.3c0,0,0.1,0,0.1,0L160.8,116.2C160.9,116.2,160.9,116.2,160.8,116.2"/>
					<path fill="#AB141A" d="M160.9,116.2l-0.1-1.4c0,0,0.1,0,0.1,0L160.9,116.2C161,116.2,161,116.2,160.9,116.2"/>
					<path fill="#AC141A" d="M161,116.2l-0.1-1.4c0,0,0.1,0,0.1,0L161,116.2C161.1,116.2,161.1,116.2,161,116.2"/>
					<path fill="#AD141A" d="M161.1,116.2l-0.1-1.4c0,0,0.1,0,0.1,0L161.1,116.2C161.2,116.2,161.1,116.2,161.1,116.2"/>
					<path fill="#AE151A" d="M161.2,116.2l0-1.4c0,0,0.1,0,0.1,0L161.2,116.2C161.3,116.2,161.2,116.2,161.2,116.2"/>
					<path fill="#AF151B" d="M161.3,116.2l0-1.4c0,0,0.1,0,0.1,0L161.3,116.2C161.3,116.2,161.3,116.2,161.3,116.2"/>
					<path fill="#B0151B" d="M161.4,116.2l0-1.4c0,0,0.1,0,0.1,0c0,0,0,0,0,0L161.4,116.2C161.4,116.2,161.4,116.2,161.4,116.2
						C161.4,116.2,161.4,116.2,161.4,116.2"/>
					<path fill="#B1151B" d="M161.5,116.2l0-1.4c0,0,0.1,0,0.1,0L161.5,116.2C161.5,116.2,161.5,116.2,161.5,116.2"/>
					<path fill="#B2151B" d="M161.5,116.2l0-1.4c0,0,0.1,0,0.1,0L161.5,116.2C161.6,116.2,161.6,116.2,161.5,116.2"/>
					<path fill="#B3151B" d="M161.6,116.2l0-1.4c0,0,0.1,0,0.1,0L161.6,116.2C161.7,116.2,161.7,116.2,161.6,116.2"/>
					<path fill="#B4151B" d="M161.7,116.2l0.1-1.4c0,0,0.1,0,0.1,0L161.7,116.2C161.8,116.2,161.8,116.2,161.7,116.2"/>
					<path fill="#B5151B" d="M161.8,116.2l0.1-1.3c0,0,0.1,0,0.1,0L161.8,116.2C161.9,116.2,161.8,116.2,161.8,116.2"/>
					<path fill="#B5151C" d="M161.9,116.2l0.1-1.3c0,0,0.1,0,0.1,0L161.9,116.2C162,116.3,161.9,116.2,161.9,116.2"/>
					<path fill="#B6161C" d="M162,116.3l0.1-1.3c0,0,0.1,0,0.1,0L162,116.3C162,116.3,162,116.3,162,116.3"/>
					<path fill="#B7161C" d="M162.1,116.3l0.1-1.3c0,0,0.1,0,0.1,0L162.1,116.3C162.1,116.3,162.1,116.3,162.1,116.3"/>
					<path fill="#B8161C" d="M162.2,116.3l0.1-1.3c0,0,0.1,0,0.1,0L162.2,116.3C162.2,116.3,162.2,116.3,162.2,116.3"/>
					<path fill="#B9161C" d="M162.2,116.3l0.1-1.3c0,0,0.1,0,0.1,0L162.2,116.3C162.3,116.3,162.3,116.3,162.2,116.3"/>
					<path fill="#BA161C" d="M162.3,116.3l0.2-1.3c0,0,0.1,0,0.1,0L162.3,116.3C162.4,116.3,162.4,116.3,162.3,116.3"/>
					<path fill="#BB161C" d="M162.4,116.3l0.2-1.3c0,0,0.1,0,0.1,0L162.4,116.3C162.5,116.3,162.4,116.3,162.4,116.3"/>
					<path fill="#BC161D" d="M162.5,116.3l0.2-1.3c0,0,0.1,0,0.1,0L162.5,116.3C162.6,116.4,162.5,116.4,162.5,116.3"/>
					<path fill="#BD161D" d="M162.6,116.4l0.2-1.3c0,0,0.1,0,0.1,0L162.6,116.4C162.6,116.4,162.6,116.4,162.6,116.4"/>
					<path fill="#BE161D" d="M162.7,116.4l0.2-1.3c0,0,0.1,0,0.1,0L162.7,116.4C162.7,116.4,162.7,116.4,162.7,116.4"/>
					<path fill="#BF171D" d="M162.8,116.4l0.2-1.3c0,0,0.1,0,0.1,0L162.8,116.4C162.8,116.4,162.8,116.4,162.8,116.4"/>
					<path fill="#BF171D" d="M162.8,116.4l0.2-1.3c0,0,0.1,0,0.1,0L162.8,116.4C162.9,116.5,162.9,116.4,162.8,116.4"/>
					<path fill="#C0171D" d="M162.9,116.5l0.3-1.3c0,0,0.1,0,0.1,0L162.9,116.5C163,116.5,163,116.5,162.9,116.5"/>
					<path fill="#C1171D" d="M163,116.5l0.3-1.3c0,0,0.1,0,0.1,0L163,116.5C163.1,116.5,163,116.5,163,116.5"/>
					<path fill="#C2171D" d="M163.1,116.5l0.3-1.3c0,0,0.1,0,0.1,0L163.1,116.5C163.2,116.5,163.1,116.5,163.1,116.5"/>
					<path fill="#C3171E" d="M163.2,116.5l0.3-1.3c0,0,0.1,0,0.1,0L163.2,116.5C163.2,116.6,163.2,116.6,163.2,116.5"/>
					<path fill="#C4171E" d="M163.3,116.6l0.3-1.3c0,0,0.1,0,0.1,0L163.3,116.6C163.3,116.6,163.3,116.6,163.3,116.6"/>
					<path fill="#C5171E" d="M163.4,116.6l0.3-1.3c0,0,0.1,0,0.1,0L163.4,116.6C163.4,116.6,163.4,116.6,163.4,116.6"/>
					<path fill="#C6171E" d="M163.4,116.6l0.3-1.3c0,0,0.1,0,0.1,0L163.4,116.6C163.5,116.7,163.5,116.7,163.4,116.6"/>
					<path fill="#C7171E" d="M163.5,116.7l0.4-1.3c0,0,0.1,0,0.1,0L163.5,116.7C163.6,116.7,163.6,116.7,163.5,116.7"/>
					<path fill="#C8181E" d="M163.6,116.7l0.4-1.3c0,0,0.1,0,0.1,0L163.6,116.7C163.7,116.7,163.6,116.7,163.6,116.7"/>
					<path fill="#C9181E" d="M163.7,116.8l0.4-1.3c0,0,0.1,0,0.1,0L163.7,116.8C163.8,116.8,163.7,116.8,163.7,116.8"/>
					<path fill="#C9181F" d="M163.8,116.8l0.4-1.3c0,0,0.1,0,0.1,0L163.8,116.8C163.9,116.8,163.8,116.8,163.8,116.8"/>
					<path fill="#CA181F" d="M163.9,116.8l0.4-1.3c0,0,0.1,0,0.1,0.1L163.9,116.8C163.9,116.9,163.9,116.9,163.9,116.8"/>
					<path fill="#CB181F" d="M164,116.9l0.4-1.2c0,0,0.1,0,0.1,0.1L164,116.9C164,116.9,164,116.9,164,116.9"/>
					<path fill="#CC181F" d="M164.1,116.9l0.4-1.2c0,0,0.1,0,0.1,0.1L164.1,116.9C164.1,117,164.1,116.9,164.1,116.9"/>
					<path fill="#CD181F" d="M164.1,117l0.5-1.2c0,0,0.1,0,0.1,0.1L164.1,117C164.2,117,164.2,117,164.1,117"/>
					<path fill="#CE181F" d="M164.2,117l0.5-1.2c0,0,0.1,0,0.1,0.1L164.2,117C164.3,117.1,164.3,117,164.2,117"/>
					<path fill="#CF181F" d="M164.3,117.1l0.5-1.2c0,0,0.1,0,0.1,0.1L164.3,117.1C164.4,117.1,164.4,117.1,164.3,117.1"/>
					<path fill="#D01920" d="M164.4,117.1l0.5-1.2c0,0,0.1,0,0.1,0.1L164.4,117.1C164.5,117.2,164.4,117.2,164.4,117.1"/>
					<path fill="#D11920" d="M164.5,117.2l0.5-1.2c0,0,0.1,0,0.1,0.1L164.5,117.2C164.6,117.2,164.5,117.2,164.5,117.2"/>
					<path fill="#D21920" d="M164.6,117.3l0.5-1.2c0,0,0.1,0,0.1,0.1L164.6,117.3C164.7,117.3,164.6,117.3,164.6,117.3"/>
					<path fill="#D31920" d="M164.7,117.3l0.6-1.2c0,0,0.1,0.1,0.1,0.1L164.7,117.3C164.7,117.4,164.7,117.3,164.7,117.3"/>
					<path fill="#D41920" d="M164.8,117.4l0.6-1.2c0,0,0.1,0.1,0.1,0.1L164.8,117.4C164.8,117.4,164.8,117.4,164.8,117.4"/>
					<path fill="#D41920" d="M164.9,117.5l0.6-1.2c0,0,0.1,0.1,0.1,0.1L164.9,117.5C164.9,117.5,164.9,117.5,164.9,117.5"/>
					<path fill="#D51920" d="M165,117.5l0.6-1.1c0,0,0.1,0.1,0.1,0.1L165,117.5C165,117.6,165,117.6,165,117.5"/>
					<path fill="#D61921" d="M165.1,117.6l0.6-1.1c0,0,0.1,0.1,0.1,0.1L165.1,117.6C165.1,117.7,165.1,117.6,165.1,117.6"/>
					<path fill="#D71921" d="M165.2,117.7l0.6-1.1c0,0,0.1,0.1,0.1,0.1l-0.6,1.1C165.2,117.7,165.2,117.7,165.2,117.7"/>
					<path fill="#D81A21" d="M165.3,117.8l0.6-1.1c0,0,0.1,0.1,0.1,0.1l-0.7,1.1C165.3,117.8,165.3,117.8,165.3,117.8"/>
					<path fill="#D91A21" d="M165.4,117.9l0.7-1.1c0,0,0.1,0.1,0.1,0.1l-0.7,1.1C165.4,117.9,165.4,117.9,165.4,117.9"/>
					<path fill="#DA1A21" d="M165.5,118l0.7-1.1c0,0,0.1,0.1,0.1,0.1l-0.7,1C165.5,118,165.5,118,165.5,118"/>
					<path fill="#DB1A21" d="M165.6,118.1l0.7-1c0,0,0.1,0.1,0.1,0.1l-0.7,1C165.7,118.2,165.6,118.1,165.6,118.1"/>
					<polyline fill="#DC1A21" points="165.7,118.2 166.4,117.2 166.4,117.2 166.4,117.2 165.7,118.2 165.7,118.2 165.7,118.2 					
						"/>
					<path fill="#DB1A21" d="M165.7,118.2l0.7-1c0.1,0.1,0.2,0.2,0.3,0.4l-0.7,1C165.9,118.4,165.8,118.3,165.7,118.2"/>
					<path fill="#DA1A21" d="M166,118.6l0.7-1c0.3,0.3,0.7,0.7,1.2,1.2l-0.7,1C166.8,119.3,166.4,118.9,166,118.6"/>
					<path fill="#DB1A21" d="M167.2,119.8l0.7-1c0.3,0.3,0.7,0.7,1.1,1.2l-0.7,1C167.9,120.5,167.6,120.1,167.2,119.8"/>
					<path fill="#DC1A21" d="M168.3,120.9l0.7-1c0.3,0.3,0.6,0.7,1,1.1l-0.7,1C168.9,121.6,168.6,121.3,168.3,120.9"/>
					<path fill="#DD1A22" d="M169.3,122l0.7-1c0.3,0.4,0.6,0.7,1,1.1l-0.8,1C169.9,122.7,169.6,122.3,169.3,122"/>
					<path fill="#DE1A22" d="M170.2,123.1l0.8-1c0.3,0.4,0.7,0.8,1,1.3l-0.8,1C170.9,123.9,170.5,123.5,170.2,123.1"/>
					<path fill="#DE1A22" d="M171.2,124.4l0.8-1c0.4,0.5,0.7,1,1.1,1.5l-0.8,0.9C171.9,125.3,171.6,124.8,171.2,124.4"/>
					<path fill="#DF1A22" d="M172.3,125.9l0.8-0.9c0.4,0.6,0.9,1.3,1.3,2l-0.8,0.9C173.2,127.2,172.7,126.5,172.3,125.9"/>
					<path fill="#E01B22" d="M173.6,127.9l0.8-0.9c0.8,1.3,1.6,2.7,2.3,4.2l-0.9,0.8C175.2,130.5,174.4,129.1,173.6,127.9"/>
					<path fill="#E11B22" d="M175.9,132l0.9-0.8c0.3,0.6,0.6,1.3,0.9,2c0,0,0,0.1,0.1,0.1l-0.9,0.8c0,0,0-0.1-0.1-0.1
						C176.5,133.3,176.2,132.6,175.9,132"/>
					<path fill="#E01B22" d="M176.9,134.1l0.9-0.8c0.1,0.1,0.1,0.2,0.2,0.3l-0.8,0.9C177,134.4,176.9,134.2,176.9,134.1"/>
					<path fill="#DF1A22" d="M177.1,134.5l0.8-0.9c0,0,0.1,0.1,0.1,0.1l-0.8,0.9C177.2,134.6,177.1,134.6,177.1,134.5"/>
					<path fill="#DE1A22" d="M177.2,134.7l0.8-0.9c0,0,0.1,0.1,0.1,0.1l-0.8,1C177.3,134.8,177.3,134.8,177.2,134.7"/>
					<path fill="#DE1A22" d="M177.3,134.8l0.8-1c0,0,0,0.1,0.1,0.1l-0.7,1C177.4,134.9,177.4,134.9,177.3,134.8"/>
					<path fill="#DD1A22" d="M177.4,135l0.7-1c0,0,0,0,0.1,0.1L177.4,135C177.5,135,177.4,135,177.4,135"/>
					<path fill="#DC1A21" d="M177.5,135.1l0.7-1c0,0,0,0,0.1,0.1L177.5,135.1C177.6,135.1,177.5,135.1,177.5,135.1"/>
					<path fill="#DB1A21" d="M177.6,135.2l0.7-1c0,0,0,0,0.1,0.1L177.6,135.2C177.6,135.2,177.6,135.2,177.6,135.2"/>
					<path fill="#DA1A21" d="M177.7,135.2l0.7-1.1c0,0,0,0,0.1,0.1L177.7,135.2C177.7,135.3,177.7,135.3,177.7,135.2"/>
					<path fill="#D91A21" d="M177.7,135.3l0.7-1.1c0,0,0,0,0,0L177.7,135.3C177.8,135.3,177.8,135.3,177.7,135.3"/>
					<path fill="#D81A21" d="M177.8,135.4l0.6-1.1c0,0,0,0,0.1,0L177.8,135.4C177.8,135.4,177.8,135.4,177.8,135.4"/>
					<path fill="#D71921" d="M177.9,135.4l0.6-1.1c0,0,0,0,0,0L177.9,135.4C177.9,135.5,177.9,135.4,177.9,135.4"/>
					<path fill="#D61921" d="M177.9,135.5l0.6-1.1c0,0,0,0,0,0L177.9,135.5C178,135.5,178,135.5,177.9,135.5"/>
					<path fill="#D51920" d="M178,135.5l0.6-1.1c0,0,0,0,0,0L178,135.5C178,135.6,178,135.6,178,135.5"/>
					<path fill="#D41920" d="M178.1,135.6l0.6-1.1c0,0,0,0,0,0L178.1,135.6C178.1,135.6,178.1,135.6,178.1,135.6"/>
					<path fill="#D41920" d="M178.1,135.6l0.6-1.2c0,0,0,0,0,0L178.1,135.6C178.2,135.7,178.1,135.6,178.1,135.6"/>
					<path fill="#D31920" d="M178.2,135.7l0.6-1.2c0,0,0,0,0,0L178.2,135.7C178.2,135.7,178.2,135.7,178.2,135.7"/>
					<path fill="#D21920" d="M178.2,135.7l0.5-1.2c0,0,0,0,0,0L178.2,135.7C178.3,135.7,178.3,135.7,178.2,135.7"/>
					<path fill="#D11920" d="M178.3,135.8l0.5-1.2c0,0,0,0,0,0L178.3,135.8C178.3,135.8,178.3,135.8,178.3,135.8"/>
					<path fill="#D01920" d="M178.4,135.8l0.5-1.2c0,0,0,0,0,0L178.4,135.8C178.4,135.8,178.4,135.8,178.4,135.8"/>
					<path fill="#CF181F" d="M178.4,135.8l0.5-1.2c0,0,0,0,0,0L178.4,135.8C178.4,135.9,178.4,135.8,178.4,135.8"/>
					<path fill="#CE181F" d="M178.5,135.9l0.5-1.2c0,0,0,0,0,0L178.5,135.9C178.5,135.9,178.5,135.9,178.5,135.9"/>
					<path fill="#CD181F" d="M178.5,135.9l0.5-1.2c0,0,0,0,0,0L178.5,135.9C178.6,135.9,178.5,135.9,178.5,135.9"/>
					<path fill="#CC181F" d="M178.6,135.9l0.4-1.2c0,0,0,0,0,0L178.6,135.9C178.6,136,178.6,135.9,178.6,135.9"/>
					<path fill="#CB181F" d="M178.6,136l0.4-1.2c0,0,0,0,0,0L178.6,136C178.7,136,178.6,136,178.6,136"/>
					<path fill="#CA181F" d="M178.7,136l0.4-1.3c0,0,0,0,0,0L178.7,136C178.7,136,178.7,136,178.7,136"/>
					<path fill="#C9181F" d="M178.7,136l0.4-1.3c0,0,0,0,0,0L178.7,136C178.8,136,178.8,136,178.7,136"/>
					<path fill="#C9181E" d="M178.8,136l0.4-1.3c0,0,0,0,0,0L178.8,136C178.8,136.1,178.8,136,178.8,136"/>
					<path fill="#C8181E" d="M178.8,136.1l0.4-1.3c0,0,0,0,0,0L178.8,136.1C178.9,136.1,178.9,136.1,178.8,136.1"/>
					<path fill="#C7171E" d="M178.9,136.1l0.4-1.3c0,0,0,0,0,0L178.9,136.1C178.9,136.1,178.9,136.1,178.9,136.1"/>
					<path fill="#C6171E" d="M178.9,136.1l0.3-1.3c0,0,0,0,0,0L178.9,136.1C179,136.1,179,136.1,178.9,136.1"/>
					<path fill="#C5171E" d="M179,136.1l0.3-1.3c0,0,0,0,0,0L179,136.1C179,136.1,179,136.1,179,136.1"/>
					<path fill="#C4171E" d="M179,136.1l0.3-1.3c0,0,0,0,0,0L179,136.1C179.1,136.2,179.1,136.2,179,136.1"/>
					<path fill="#C3171E" d="M179.1,136.2l0.3-1.3c0,0,0,0,0,0L179.1,136.2C179.1,136.2,179.1,136.2,179.1,136.2"/>
					<path fill="#C2171D" d="M179.1,136.2l0.3-1.3c0,0,0,0,0,0L179.1,136.2C179.2,136.2,179.2,136.2,179.1,136.2"/>
					<path fill="#C1171D" d="M179.2,136.2l0.3-1.3c0,0,0,0,0,0L179.2,136.2C179.2,136.2,179.2,136.2,179.2,136.2"/>
					<path fill="#C0171D" d="M179.2,136.2l0.3-1.3c0,0,0,0,0,0L179.2,136.2C179.3,136.2,179.3,136.2,179.2,136.2"/>
					<path fill="#BF171D" d="M179.3,136.2l0.2-1.3c0,0,0,0,0,0L179.3,136.2C179.3,136.2,179.3,136.2,179.3,136.2"/>
					<path fill="#BF171D" d="M179.3,136.2l0.2-1.3c0,0,0,0,0,0L179.3,136.2C179.4,136.3,179.4,136.3,179.3,136.2"/>
					<path fill="#BE161D" d="M179.4,136.3l0.2-1.3c0,0,0,0,0,0L179.4,136.3C179.4,136.3,179.4,136.3,179.4,136.3"/>
					<path fill="#BD161D" d="M179.4,136.3l0.2-1.3c0,0,0,0,0,0L179.4,136.3C179.5,136.3,179.4,136.3,179.4,136.3"/>
					<path fill="#BC161D" d="M179.5,136.3l0.2-1.3c0,0,0,0,0,0L179.5,136.3C179.5,136.3,179.5,136.3,179.5,136.3"/>
					<path fill="#BB161C" d="M179.5,136.3l0.2-1.3c0,0,0,0,0,0L179.5,136.3C179.6,136.3,179.5,136.3,179.5,136.3"/>
					<path fill="#BA161C" d="M179.6,136.3l0.2-1.3c0,0,0,0,0,0L179.6,136.3C179.6,136.3,179.6,136.3,179.6,136.3"/>
					<path fill="#B9161C" d="M179.6,136.3l0.1-1.3c0,0,0,0,0,0L179.6,136.3C179.7,136.3,179.6,136.3,179.6,136.3"/>
					<path fill="#B8161C" d="M179.7,136.3l0.1-1.3c0,0,0,0,0,0L179.7,136.3C179.7,136.3,179.7,136.3,179.7,136.3"/>
					<path fill="#B7161C" d="M179.7,136.3l0.1-1.3c0,0,0,0,0,0L179.7,136.3C179.7,136.3,179.7,136.3,179.7,136.3"/>
					<path fill="#B6161C" d="M179.8,136.3l0.1-1.3c0,0,0,0,0,0L179.8,136.3C179.8,136.3,179.8,136.3,179.8,136.3"/>
					<path fill="#B5151C" d="M179.8,136.3l0.1-1.3c0,0,0,0,0,0L179.8,136.3C179.8,136.3,179.8,136.3,179.8,136.3"/>
					<path fill="#B5151B" d="M179.9,136.4l0.1-1.3c0,0,0,0,0,0L179.9,136.4C179.9,136.4,179.9,136.4,179.9,136.4"/>
					<path fill="#B4151B" d="M179.9,136.4l0.1-1.3c0,0,0,0,0,0L179.9,136.4C179.9,136.4,179.9,136.4,179.9,136.4"/>
					<path fill="#B3151B" d="M180,136.4l0.1-1.4c0,0,0,0,0,0L180,136.4C180,136.4,180,136.4,180,136.4"/>
					<path fill="#B2151B" d="M180,136.4l0-1.4c0,0,0,0,0,0L180,136.4C180,136.4,180,136.4,180,136.4"/>
					<path fill="#B1151B" d="M180,136.4l0-1.4c0,0,0,0,0,0L180,136.4C180.1,136.4,180.1,136.4,180,136.4"/>
					<path fill="#B0151B" d="M180.1,136.4l0-1.4c0,0,0,0,0,0c0,0,0,0,0,0L180.1,136.4C180.1,136.4,180.1,136.4,180.1,136.4
						C180.1,136.4,180.1,136.4,180.1,136.4"/>
					<path fill="#AF151B" d="M180.1,136.4l0-1.4c0,0,0,0,0,0L180.1,136.4C180.2,136.4,180.2,136.4,180.1,136.4"/>
					<path fill="#AE151A" d="M180.2,136.4l0-1.4c0,0,0,0,0,0L180.2,136.4C180.2,136.4,180.2,136.4,180.2,136.4"/>
					<path fill="#AD141A" d="M180.2,136.4l0-1.4c0,0,0,0,0,0L180.2,136.4C180.3,136.4,180.3,136.4,180.2,136.4"/>
					<path fill="#AC141A" d="M180.3,136.4l-0.1-1.4c0,0,0,0,0,0L180.3,136.4C180.3,136.4,180.3,136.4,180.3,136.4"/>
					<path fill="#AB141A" d="M180.3,136.4l-0.1-1.4c0,0,0,0,0,0L180.3,136.4C180.4,136.4,180.4,136.4,180.3,136.4"/>
					<path fill="#AA141A" d="M180.4,136.4l-0.1-1.4c0,0,0,0,0,0L180.4,136.4C180.4,136.4,180.4,136.4,180.4,136.4"/>
					<path fill="#AA141A" d="M180.4,136.4l-0.1-1.3c0,0,0,0,0,0L180.4,136.4C180.5,136.4,180.5,136.4,180.4,136.4"/>
					<path fill="#A9141A" d="M180.5,136.4l-0.1-1.3c0,0,0,0,0,0L180.5,136.4C180.5,136.3,180.5,136.4,180.5,136.4"/>
					<path fill="#A81419" d="M180.5,136.3l-0.2-1.3c0,0,0,0,0,0L180.5,136.3C180.6,136.3,180.6,136.3,180.5,136.3"/>
					<path fill="#A71419" d="M180.6,136.3l-0.2-1.3c0,0,0,0,0,0L180.6,136.3C180.6,136.3,180.6,136.3,180.6,136.3"/>
					<path fill="#A61419" d="M180.6,136.3l-0.2-1.3c0,0,0,0,0,0L180.6,136.3C180.7,136.3,180.7,136.3,180.6,136.3"/>
					<path fill="#A51319" d="M180.7,136.3l-0.2-1.3c0,0,0,0,0,0L180.7,136.3C180.7,136.3,180.7,136.3,180.7,136.3"/>
					<path fill="#A41319" d="M180.7,136.3l-0.3-1.3c0,0,0,0,0,0L180.7,136.3C180.8,136.3,180.8,136.3,180.7,136.3"/>
					<path fill="#A31319" d="M180.8,136.3l-0.3-1.3c0,0,0,0,0,0L180.8,136.3C180.8,136.3,180.8,136.3,180.8,136.3"/>
					<path fill="#A21319" d="M180.9,136.3l-0.3-1.3c0,0,0,0,0,0L180.9,136.3C180.9,136.3,180.9,136.3,180.9,136.3"/>
					<path fill="#A11319" d="M180.9,136.3l-0.3-1.3c0,0,0,0,0,0L180.9,136.3C181,136.3,180.9,136.3,180.9,136.3"/>
					<path fill="#A01318" d="M181,136.3l-0.3-1.3c0,0,0,0,0,0L181,136.3C181,136.2,181,136.2,181,136.3"/>
					<path fill="#A01318" d="M181,136.2l-0.4-1.3c0,0,0,0,0,0L181,136.2C181.1,136.2,181.1,136.2,181,136.2"/>
					<path fill="#9F1318" d="M181.1,136.2l-0.4-1.3c0,0,0,0,0,0L181.1,136.2C181.2,136.2,181.1,136.2,181.1,136.2"/>
					<path fill="#9E1318" d="M181.2,136.2l-0.4-1.3c0,0,0,0,0,0L181.2,136.2C181.2,136.2,181.2,136.2,181.2,136.2"/>
					<path fill="#9D1318" d="M181.3,136.1l-0.5-1.3c0,0,0,0,0.1,0L181.3,136.1C181.3,136.1,181.3,136.1,181.3,136.1"/>
					<path fill="#9C1218" d="M181.4,136.1l-0.5-1.2c0,0,0,0,0.1,0l0.6,1.2C181.4,136.1,181.4,136.1,181.4,136.1"/>
					<path fill="#9B1218" d="M181.5,136l-0.6-1.2c0.2-0.1,0.3-0.3,0.4-0.5c10.2-18.4,35.5-42.6,42.8-47.7c0.6-0.4,1.2-0.8,1.8-1.2
						l0.5,1.2c-0.6,0.4-1.2,0.7-1.8,1.2c-7.2,5-32.4,29.1-42.5,47.4C182.1,135.6,181.8,135.8,181.5,136"/>
					<path fill="#9C1218" d="M226.5,86.7l-0.5-1.2c0.6-0.3,1.2-0.7,1.7-1l0.5,1.2C227.6,86,227,86.3,226.5,86.7"/>
					<path fill="#9D1318" d="M228.2,85.7l-0.5-1.2c0.4-0.2,0.8-0.4,1.3-0.6l0.4,1.3C229,85.3,228.6,85.5,228.2,85.7"/>
					<path fill="#9E1318" d="M229.4,85.1l-0.4-1.3c0.3-0.2,0.7-0.3,1-0.4l0.4,1.3C230,84.8,229.7,85,229.4,85.1"/>
					<path fill="#9F1318" d="M230.3,84.7l-0.4-1.3c0.3-0.1,0.6-0.2,0.8-0.3l0.4,1.3C230.9,84.5,230.6,84.6,230.3,84.7"/>
					<path fill="#A01318" d="M231.1,84.4l-0.4-1.3c0.2-0.1,0.5-0.2,0.7-0.3l0.3,1.3C231.6,84.2,231.3,84.3,231.1,84.4"/>
					<path fill="#A01318" d="M231.8,84.1l-0.3-1.3c0.2-0.1,0.4-0.1,0.6-0.2l0.3,1.3C232.2,84,232,84,231.8,84.1"/>
					<path fill="#A11319" d="M232.4,83.9l-0.3-1.3c0.2-0.1,0.4-0.1,0.5-0.2l0.3,1.3C232.7,83.8,232.6,83.9,232.4,83.9"/>
					<path fill="#A21319" d="M232.9,83.8l-0.3-1.3c0.2,0,0.3-0.1,0.5-0.1l0.2,1.3C233.2,83.7,233.1,83.7,232.9,83.8"/>
					<path fill="#A31319" d="M233.4,83.6l-0.2-1.3c0.1,0,0.3-0.1,0.4-0.1l0.2,1.3C233.6,83.6,233.5,83.6,233.4,83.6"/>
					<path fill="#A41319" d="M233.8,83.5l-0.2-1.3c0.1,0,0.3-0.1,0.4-0.1l0.2,1.3C234,83.5,233.9,83.5,233.8,83.5"/>
					<path fill="#A51319" d="M234.2,83.4l-0.2-1.3c0.1,0,0.2-0.1,0.4-0.1l0.2,1.3C234.4,83.4,234.3,83.4,234.2,83.4"/>
					<path fill="#A61419" d="M234.5,83.4l-0.2-1.3c0.1,0,0.2,0,0.3-0.1l0.2,1.3C234.7,83.3,234.6,83.4,234.5,83.4"/>
					<path fill="#A71419" d="M234.8,83.3l-0.2-1.3c0.1,0,0.2,0,0.3,0l0.1,1.3C235,83.3,234.9,83.3,234.8,83.3"/>
					<path fill="#A81419" d="M235.1,83.3l-0.1-1.3c0.1,0,0.2,0,0.3,0l0.1,1.3C235.3,83.2,235.2,83.3,235.1,83.3"/>
					<path fill="#A9141A" d="M235.4,83.2l-0.1-1.3c0.1,0,0.2,0,0.3,0l0.1,1.3C235.6,83.2,235.5,83.2,235.4,83.2"/>
					<path fill="#AA141A" d="M235.7,83.2l-0.1-1.3c0.1,0,0.2,0,0.3,0l0.1,1.3C235.8,83.2,235.8,83.2,235.7,83.2"/>
					<path fill="#AA141A" d="M235.9,83.2l-0.1-1.3c0.1,0,0.2,0,0.3,0l0.1,1.4C236.1,83.2,236,83.2,235.9,83.2"/>
					<path fill="#AB141A" d="M236.1,83.2l-0.1-1.4c0.1,0,0.2,0,0.2,0l0.1,1.4C236.3,83.1,236.2,83.2,236.1,83.2"/>
					<path fill="#AC141A" d="M236.4,83.1l-0.1-1.4c0.1,0,0.1,0,0.2,0l0,1.4C236.5,83.1,236.4,83.1,236.4,83.1"/>
					<path fill="#AD141A" d="M236.6,83.1l0-1.4c0.1,0,0.1,0,0.2,0l0,1.4C236.7,83.1,236.6,83.1,236.6,83.1"/>
					<path fill="#AE151A" d="M236.8,83.1l0-1.4c0.1,0,0.1,0,0.2,0l0,1.4C236.9,83.1,236.8,83.1,236.8,83.1"/>
					<path fill="#AF151B" d="M236.9,83.1l0-1.4c0.1,0,0.1,0,0.2,0l0,1.4C237.1,83.1,237,83.1,236.9,83.1"/>
					<path fill="#B0151B" d="M237.1,83.1l0-1.4c0,0,0.1,0,0.1,0l0,1.4C237.2,83.1,237.2,83.1,237.1,83.1"/>
				</g>
			</g>
			<g>
				<path fill="#BE161D" d="M237.2,83.1c2.6,0.1,4.8,1.2,5.9,3.6c3.3,7.3-1.5,10.8-5.8,13.3c-13.5,7.8-36.8,20.7-54.5,48.9
					c-1.1,1.8-2.7,2.6-4.1,2.5c-1.3,0-2.5-0.8-3-2.3c-3.6-10.4-14.6-22.9-16.6-24.7c-2.1-1.8-1.9-5.3-1.1-6.5
					c0.7-1.2,2.1-1.7,3.5-1.7c1.5,0,3.1,0.7,4.3,2c1.6,1.8,7.1,6.6,11.1,15.8c0.7,1.5,2,2.4,3.3,2.4c0.9,0,1.7-0.4,2.1-1.2
					c10.1-18.2,35.2-42.4,42.5-47.4C228.9,84.9,233.6,83,237.2,83.1z"/>
			</g>
		</g>
	</g>
</g>
</svg>
